%TF.GenerationSoftware,KiCad,Pcbnew,8.0.4*%
%TF.CreationDate,2024-07-23T21:16:43+01:00*%
%TF.ProjectId,8_Way_Relay_Board,385f5761-795f-4526-956c-61795f426f61,V1*%
%TF.SameCoordinates,Original*%
%TF.FileFunction,Copper,L2,Inr*%
%TF.FilePolarity,Positive*%
%FSLAX46Y46*%
G04 Gerber Fmt 4.6, Leading zero omitted, Abs format (unit mm)*
G04 Created by KiCad (PCBNEW 8.0.4) date 2024-07-23 21:16:43*
%MOMM*%
%LPD*%
G01*
G04 APERTURE LIST*
G04 Aperture macros list*
%AMRoundRect*
0 Rectangle with rounded corners*
0 $1 Rounding radius*
0 $2 $3 $4 $5 $6 $7 $8 $9 X,Y pos of 4 corners*
0 Add a 4 corners polygon primitive as box body*
4,1,4,$2,$3,$4,$5,$6,$7,$8,$9,$2,$3,0*
0 Add four circle primitives for the rounded corners*
1,1,$1+$1,$2,$3*
1,1,$1+$1,$4,$5*
1,1,$1+$1,$6,$7*
1,1,$1+$1,$8,$9*
0 Add four rect primitives between the rounded corners*
20,1,$1+$1,$2,$3,$4,$5,0*
20,1,$1+$1,$4,$5,$6,$7,0*
20,1,$1+$1,$6,$7,$8,$9,0*
20,1,$1+$1,$8,$9,$2,$3,0*%
G04 Aperture macros list end*
%TA.AperFunction,ComponentPad*%
%ADD10RoundRect,0.250000X-0.650000X-1.550000X0.650000X-1.550000X0.650000X1.550000X-0.650000X1.550000X0*%
%TD*%
%TA.AperFunction,ComponentPad*%
%ADD11O,1.800000X3.600000*%
%TD*%
%TA.AperFunction,ComponentPad*%
%ADD12R,1.752600X1.752600*%
%TD*%
%TA.AperFunction,ComponentPad*%
%ADD13C,1.752600*%
%TD*%
%TA.AperFunction,ViaPad*%
%ADD14C,0.800000*%
%TD*%
G04 APERTURE END LIST*
D10*
%TO.N,Out1*%
%TO.C,J2*%
X88356700Y-52661700D03*
D11*
%TO.N,Out2*%
X91856700Y-52661700D03*
%TO.N,Out3*%
X95356700Y-52661700D03*
%TO.N,Out4*%
X98856700Y-52661700D03*
%TO.N,Out5*%
X102356700Y-52661700D03*
%TO.N,Out6*%
X105856700Y-52661700D03*
%TO.N,Out7*%
X109356700Y-52661700D03*
%TO.N,Out8*%
X112856700Y-52661700D03*
%TO.N,+24V*%
X116356700Y-52661700D03*
%TO.N,GND*%
X119856700Y-52661700D03*
%TD*%
D12*
%TO.N,GND*%
%TO.C,K7*%
X131013200Y-80835500D03*
D13*
%TO.N,Net-(K7-Pad2)*%
X131013200Y-78295500D03*
%TO.N,Out7*%
X131013200Y-68135500D03*
%TO.N,+24V*%
X131013200Y-63055500D03*
%TD*%
D12*
%TO.N,GND*%
%TO.C,K8*%
X142087600Y-80835500D03*
D13*
%TO.N,Net-(K8-Pad2)*%
X142087600Y-78295500D03*
%TO.N,Out8*%
X142087600Y-68135500D03*
%TO.N,+24V*%
X142087600Y-63055500D03*
%TD*%
D12*
%TO.N,GND*%
%TO.C,K2*%
X77622400Y-80835500D03*
D13*
%TO.N,Net-(K2-Pad2)*%
X77622400Y-78295500D03*
%TO.N,Out2*%
X77622400Y-68135500D03*
%TO.N,+24V*%
X77622400Y-63055500D03*
%TD*%
D12*
%TO.N,GND*%
%TO.C,K6*%
X121107200Y-80835500D03*
D13*
%TO.N,Net-(K6-Pad2)*%
X121107200Y-78295500D03*
%TO.N,Out6*%
X121107200Y-68135500D03*
%TO.N,+24V*%
X121107200Y-63055500D03*
%TD*%
D10*
%TO.N,In1*%
%TO.C,J1*%
X88875200Y-91389200D03*
D11*
%TO.N,In2*%
X92375200Y-91389200D03*
%TO.N,In3*%
X95875200Y-91389200D03*
%TO.N,In4*%
X99375200Y-91389200D03*
%TO.N,In5*%
X102875200Y-91389200D03*
%TO.N,In6*%
X106375200Y-91389200D03*
%TO.N,In7*%
X109875200Y-91389200D03*
%TO.N,In8*%
X113375200Y-91389200D03*
%TO.N,+24V*%
X116875200Y-91389200D03*
%TO.N,GND*%
X120375200Y-91389200D03*
%TD*%
D12*
%TO.N,GND*%
%TO.C,K1*%
X65735200Y-80835500D03*
D13*
%TO.N,Net-(K1-Pad2)*%
X65735200Y-78295500D03*
%TO.N,Out1*%
X65735200Y-68135500D03*
%TO.N,+24V*%
X65735200Y-63055500D03*
%TD*%
D12*
%TO.N,GND*%
%TO.C,K3*%
X89103200Y-80835500D03*
D13*
%TO.N,Net-(K3-Pad2)*%
X89103200Y-78295500D03*
%TO.N,Out3*%
X89103200Y-68135500D03*
%TO.N,+24V*%
X89103200Y-63055500D03*
%TD*%
D12*
%TO.N,GND*%
%TO.C,K4*%
X100126800Y-80835500D03*
D13*
%TO.N,Net-(K4-Pad2)*%
X100126800Y-78295500D03*
%TO.N,Out4*%
X100126800Y-68135500D03*
%TO.N,+24V*%
X100126800Y-63055500D03*
%TD*%
D12*
%TO.N,GND*%
%TO.C,K5*%
X111201200Y-80835500D03*
D13*
%TO.N,Net-(K5-Pad2)*%
X111201200Y-78295500D03*
%TO.N,Out5*%
X111201200Y-68135500D03*
%TO.N,+24V*%
X111201200Y-63055500D03*
%TD*%
D14*
%TO.N,GND*%
X64922400Y-85953600D03*
X87985600Y-83769200D03*
X76657200Y-59740800D03*
X100330000Y-57353200D03*
X119938800Y-59537600D03*
X134467600Y-57759600D03*
X129641600Y-85750400D03*
X110134400Y-84683600D03*
%TD*%
%TA.AperFunction,Conductor*%
%TO.N,GND*%
G36*
X141832259Y-47904365D02*
G01*
X141900367Y-47924413D01*
X141921270Y-47941270D01*
X143981032Y-50001032D01*
X144015058Y-50063344D01*
X144017937Y-50090276D01*
X143967261Y-92810297D01*
X143947178Y-92878394D01*
X143930356Y-92899243D01*
X141870505Y-94959095D01*
X141808193Y-94993120D01*
X141781410Y-94996000D01*
X66092190Y-94996000D01*
X66024069Y-94975998D01*
X66003095Y-94959095D01*
X63943305Y-92899305D01*
X63909279Y-92836993D01*
X63906400Y-92810210D01*
X63906400Y-91369509D01*
X65510300Y-91369509D01*
X65510300Y-91612090D01*
X65541960Y-91852582D01*
X65604744Y-92086895D01*
X65604745Y-92086897D01*
X65604746Y-92086900D01*
X65697576Y-92311012D01*
X65697577Y-92311013D01*
X65697582Y-92311024D01*
X65818861Y-92521085D01*
X65818863Y-92521088D01*
X65818864Y-92521089D01*
X65966535Y-92713538D01*
X65966539Y-92713542D01*
X65966544Y-92713548D01*
X66138051Y-92885055D01*
X66138056Y-92885059D01*
X66138062Y-92885065D01*
X66330511Y-93032736D01*
X66330514Y-93032738D01*
X66540575Y-93154017D01*
X66540579Y-93154018D01*
X66540588Y-93154024D01*
X66764700Y-93246854D01*
X66999011Y-93309638D01*
X66999015Y-93309638D01*
X66999017Y-93309639D01*
X67061002Y-93317799D01*
X67239512Y-93341300D01*
X67239519Y-93341300D01*
X67482081Y-93341300D01*
X67482088Y-93341300D01*
X67699437Y-93312685D01*
X67722582Y-93309639D01*
X67722582Y-93309638D01*
X67722589Y-93309638D01*
X67956900Y-93246854D01*
X68181012Y-93154024D01*
X68391089Y-93032736D01*
X68583538Y-92885065D01*
X68755065Y-92713538D01*
X68902736Y-92521089D01*
X69024024Y-92311012D01*
X69116854Y-92086900D01*
X69179638Y-91852589D01*
X69211300Y-91612088D01*
X69211300Y-91369512D01*
X69179638Y-91129011D01*
X69116854Y-90894700D01*
X69024024Y-90670588D01*
X69024018Y-90670579D01*
X69024017Y-90670575D01*
X68902738Y-90460514D01*
X68839693Y-90378352D01*
X68755065Y-90268062D01*
X68755059Y-90268056D01*
X68755055Y-90268051D01*
X68583548Y-90096544D01*
X68583542Y-90096539D01*
X68583538Y-90096535D01*
X68391089Y-89948864D01*
X68391088Y-89948863D01*
X68391085Y-89948861D01*
X68181024Y-89827582D01*
X68181016Y-89827578D01*
X68181012Y-89827576D01*
X68087026Y-89788646D01*
X87466700Y-89788646D01*
X87466700Y-92989744D01*
X87477312Y-93093625D01*
X87533085Y-93261938D01*
X87626170Y-93412852D01*
X87626175Y-93412858D01*
X87751541Y-93538224D01*
X87751547Y-93538229D01*
X87751548Y-93538230D01*
X87902462Y-93631315D01*
X88070774Y-93687087D01*
X88174655Y-93697700D01*
X89575744Y-93697699D01*
X89679626Y-93687087D01*
X89847938Y-93631315D01*
X89998852Y-93538230D01*
X90124230Y-93412852D01*
X90217315Y-93261938D01*
X90273087Y-93093626D01*
X90283700Y-92989745D01*
X90283699Y-90378349D01*
X90966700Y-90378349D01*
X90966700Y-92400051D01*
X90985870Y-92521085D01*
X91001383Y-92619029D01*
X91063502Y-92810210D01*
X91069892Y-92829876D01*
X91170543Y-93027415D01*
X91170545Y-93027418D01*
X91300858Y-93206778D01*
X91457621Y-93363541D01*
X91457624Y-93363543D01*
X91636985Y-93493857D01*
X91834524Y-93594508D01*
X92045376Y-93663018D01*
X92264349Y-93697700D01*
X92264352Y-93697700D01*
X92486048Y-93697700D01*
X92486051Y-93697700D01*
X92705024Y-93663018D01*
X92915876Y-93594508D01*
X93113415Y-93493857D01*
X93292776Y-93363543D01*
X93449543Y-93206776D01*
X93579857Y-93027415D01*
X93680508Y-92829876D01*
X93749018Y-92619024D01*
X93783700Y-92400051D01*
X93783700Y-90378349D01*
X94466700Y-90378349D01*
X94466700Y-92400051D01*
X94485870Y-92521085D01*
X94501383Y-92619029D01*
X94563502Y-92810210D01*
X94569892Y-92829876D01*
X94670543Y-93027415D01*
X94670545Y-93027418D01*
X94800858Y-93206778D01*
X94957621Y-93363541D01*
X94957624Y-93363543D01*
X95136985Y-93493857D01*
X95334524Y-93594508D01*
X95545376Y-93663018D01*
X95764349Y-93697700D01*
X95764352Y-93697700D01*
X95986048Y-93697700D01*
X95986051Y-93697700D01*
X96205024Y-93663018D01*
X96415876Y-93594508D01*
X96613415Y-93493857D01*
X96792776Y-93363543D01*
X96949543Y-93206776D01*
X97079857Y-93027415D01*
X97180508Y-92829876D01*
X97249018Y-92619024D01*
X97283700Y-92400051D01*
X97283700Y-90378349D01*
X97966700Y-90378349D01*
X97966700Y-92400051D01*
X97985870Y-92521085D01*
X98001383Y-92619029D01*
X98063502Y-92810210D01*
X98069892Y-92829876D01*
X98170543Y-93027415D01*
X98170545Y-93027418D01*
X98300858Y-93206778D01*
X98457621Y-93363541D01*
X98457624Y-93363543D01*
X98636985Y-93493857D01*
X98834524Y-93594508D01*
X99045376Y-93663018D01*
X99264349Y-93697700D01*
X99264352Y-93697700D01*
X99486048Y-93697700D01*
X99486051Y-93697700D01*
X99705024Y-93663018D01*
X99915876Y-93594508D01*
X100113415Y-93493857D01*
X100292776Y-93363543D01*
X100449543Y-93206776D01*
X100579857Y-93027415D01*
X100680508Y-92829876D01*
X100749018Y-92619024D01*
X100783700Y-92400051D01*
X100783700Y-90378349D01*
X101466700Y-90378349D01*
X101466700Y-92400051D01*
X101485870Y-92521085D01*
X101501383Y-92619029D01*
X101563502Y-92810210D01*
X101569892Y-92829876D01*
X101670543Y-93027415D01*
X101670545Y-93027418D01*
X101800858Y-93206778D01*
X101957621Y-93363541D01*
X101957624Y-93363543D01*
X102136985Y-93493857D01*
X102334524Y-93594508D01*
X102545376Y-93663018D01*
X102764349Y-93697700D01*
X102764352Y-93697700D01*
X102986048Y-93697700D01*
X102986051Y-93697700D01*
X103205024Y-93663018D01*
X103415876Y-93594508D01*
X103613415Y-93493857D01*
X103792776Y-93363543D01*
X103949543Y-93206776D01*
X104079857Y-93027415D01*
X104180508Y-92829876D01*
X104249018Y-92619024D01*
X104283700Y-92400051D01*
X104283700Y-90378349D01*
X104966700Y-90378349D01*
X104966700Y-92400051D01*
X104985870Y-92521085D01*
X105001383Y-92619029D01*
X105063502Y-92810210D01*
X105069892Y-92829876D01*
X105170543Y-93027415D01*
X105170545Y-93027418D01*
X105300858Y-93206778D01*
X105457621Y-93363541D01*
X105457624Y-93363543D01*
X105636985Y-93493857D01*
X105834524Y-93594508D01*
X106045376Y-93663018D01*
X106264349Y-93697700D01*
X106264352Y-93697700D01*
X106486048Y-93697700D01*
X106486051Y-93697700D01*
X106705024Y-93663018D01*
X106915876Y-93594508D01*
X107113415Y-93493857D01*
X107292776Y-93363543D01*
X107449543Y-93206776D01*
X107579857Y-93027415D01*
X107680508Y-92829876D01*
X107749018Y-92619024D01*
X107783700Y-92400051D01*
X107783700Y-90378349D01*
X108466700Y-90378349D01*
X108466700Y-92400051D01*
X108485870Y-92521085D01*
X108501383Y-92619029D01*
X108563502Y-92810210D01*
X108569892Y-92829876D01*
X108670543Y-93027415D01*
X108670545Y-93027418D01*
X108800858Y-93206778D01*
X108957621Y-93363541D01*
X108957624Y-93363543D01*
X109136985Y-93493857D01*
X109334524Y-93594508D01*
X109545376Y-93663018D01*
X109764349Y-93697700D01*
X109764352Y-93697700D01*
X109986048Y-93697700D01*
X109986051Y-93697700D01*
X110205024Y-93663018D01*
X110415876Y-93594508D01*
X110613415Y-93493857D01*
X110792776Y-93363543D01*
X110949543Y-93206776D01*
X111079857Y-93027415D01*
X111180508Y-92829876D01*
X111249018Y-92619024D01*
X111283700Y-92400051D01*
X111283700Y-90378349D01*
X111966700Y-90378349D01*
X111966700Y-92400051D01*
X111985870Y-92521085D01*
X112001383Y-92619029D01*
X112063502Y-92810210D01*
X112069892Y-92829876D01*
X112170543Y-93027415D01*
X112170545Y-93027418D01*
X112300858Y-93206778D01*
X112457621Y-93363541D01*
X112457624Y-93363543D01*
X112636985Y-93493857D01*
X112834524Y-93594508D01*
X113045376Y-93663018D01*
X113264349Y-93697700D01*
X113264352Y-93697700D01*
X113486048Y-93697700D01*
X113486051Y-93697700D01*
X113705024Y-93663018D01*
X113915876Y-93594508D01*
X114113415Y-93493857D01*
X114292776Y-93363543D01*
X114449543Y-93206776D01*
X114579857Y-93027415D01*
X114680508Y-92829876D01*
X114749018Y-92619024D01*
X114783700Y-92400051D01*
X114783700Y-90378349D01*
X115466700Y-90378349D01*
X115466700Y-92400051D01*
X115485870Y-92521085D01*
X115501383Y-92619029D01*
X115563502Y-92810210D01*
X115569892Y-92829876D01*
X115670543Y-93027415D01*
X115670545Y-93027418D01*
X115800858Y-93206778D01*
X115957621Y-93363541D01*
X115957624Y-93363543D01*
X116136985Y-93493857D01*
X116334524Y-93594508D01*
X116545376Y-93663018D01*
X116764349Y-93697700D01*
X116764352Y-93697700D01*
X116986048Y-93697700D01*
X116986051Y-93697700D01*
X117205024Y-93663018D01*
X117415876Y-93594508D01*
X117613415Y-93493857D01*
X117792776Y-93363543D01*
X117949543Y-93206776D01*
X118079857Y-93027415D01*
X118180508Y-92829876D01*
X118249018Y-92619024D01*
X118283700Y-92400051D01*
X118283700Y-90378391D01*
X118967200Y-90378391D01*
X118967200Y-91135200D01*
X119829027Y-91135200D01*
X119816089Y-91157609D01*
X119775200Y-91310209D01*
X119775200Y-91468191D01*
X119816089Y-91620791D01*
X119829027Y-91643200D01*
X118967200Y-91643200D01*
X118967200Y-92400008D01*
X119001870Y-92618910D01*
X119070355Y-92829683D01*
X119070356Y-92829685D01*
X119170972Y-93027156D01*
X119301239Y-93206453D01*
X119457946Y-93363160D01*
X119637243Y-93493427D01*
X119834714Y-93594043D01*
X119834716Y-93594044D01*
X120045489Y-93662529D01*
X120121200Y-93674520D01*
X120121200Y-91935373D01*
X120143609Y-91948311D01*
X120296209Y-91989200D01*
X120454191Y-91989200D01*
X120606791Y-91948311D01*
X120629200Y-91935373D01*
X120629200Y-93674520D01*
X120704909Y-93662529D01*
X120704911Y-93662529D01*
X120915683Y-93594044D01*
X120915685Y-93594043D01*
X121113156Y-93493427D01*
X121292453Y-93363160D01*
X121449160Y-93206453D01*
X121579427Y-93027156D01*
X121680043Y-92829685D01*
X121680044Y-92829683D01*
X121748529Y-92618910D01*
X121783200Y-92400008D01*
X121783200Y-91643200D01*
X120921373Y-91643200D01*
X120934311Y-91620791D01*
X120975200Y-91468191D01*
X120975200Y-91369509D01*
X138662300Y-91369509D01*
X138662300Y-91612090D01*
X138693960Y-91852582D01*
X138756744Y-92086895D01*
X138756745Y-92086897D01*
X138756746Y-92086900D01*
X138849576Y-92311012D01*
X138849577Y-92311013D01*
X138849582Y-92311024D01*
X138970861Y-92521085D01*
X138970863Y-92521088D01*
X138970864Y-92521089D01*
X139118535Y-92713538D01*
X139118539Y-92713542D01*
X139118544Y-92713548D01*
X139290051Y-92885055D01*
X139290056Y-92885059D01*
X139290062Y-92885065D01*
X139482511Y-93032736D01*
X139482514Y-93032738D01*
X139692575Y-93154017D01*
X139692579Y-93154018D01*
X139692588Y-93154024D01*
X139916700Y-93246854D01*
X140151011Y-93309638D01*
X140151015Y-93309638D01*
X140151017Y-93309639D01*
X140213002Y-93317799D01*
X140391512Y-93341300D01*
X140391519Y-93341300D01*
X140634081Y-93341300D01*
X140634088Y-93341300D01*
X140851437Y-93312685D01*
X140874582Y-93309639D01*
X140874582Y-93309638D01*
X140874589Y-93309638D01*
X141108900Y-93246854D01*
X141333012Y-93154024D01*
X141543089Y-93032736D01*
X141735538Y-92885065D01*
X141907065Y-92713538D01*
X142054736Y-92521089D01*
X142176024Y-92311012D01*
X142268854Y-92086900D01*
X142331638Y-91852589D01*
X142363300Y-91612088D01*
X142363300Y-91369512D01*
X142331638Y-91129011D01*
X142268854Y-90894700D01*
X142176024Y-90670588D01*
X142176018Y-90670579D01*
X142176017Y-90670575D01*
X142054738Y-90460514D01*
X141991693Y-90378352D01*
X141907065Y-90268062D01*
X141907059Y-90268056D01*
X141907055Y-90268051D01*
X141735548Y-90096544D01*
X141735542Y-90096539D01*
X141735538Y-90096535D01*
X141543089Y-89948864D01*
X141543088Y-89948863D01*
X141543085Y-89948861D01*
X141333024Y-89827582D01*
X141333016Y-89827578D01*
X141333012Y-89827576D01*
X141108900Y-89734746D01*
X141108897Y-89734745D01*
X141108895Y-89734744D01*
X140874582Y-89671960D01*
X140634090Y-89640300D01*
X140634088Y-89640300D01*
X140391512Y-89640300D01*
X140391509Y-89640300D01*
X140151017Y-89671960D01*
X139916704Y-89734744D01*
X139916700Y-89734746D01*
X139786550Y-89788656D01*
X139692586Y-89827577D01*
X139692575Y-89827582D01*
X139482514Y-89948861D01*
X139290062Y-90096535D01*
X139290051Y-90096544D01*
X139118544Y-90268051D01*
X139118535Y-90268062D01*
X138970861Y-90460514D01*
X138849582Y-90670575D01*
X138849577Y-90670586D01*
X138849576Y-90670588D01*
X138783509Y-90830089D01*
X138756746Y-90894700D01*
X138756744Y-90894704D01*
X138693960Y-91129017D01*
X138662300Y-91369509D01*
X120975200Y-91369509D01*
X120975200Y-91310209D01*
X120934311Y-91157609D01*
X120921373Y-91135200D01*
X121783200Y-91135200D01*
X121783200Y-90378391D01*
X121748529Y-90159489D01*
X121680044Y-89948716D01*
X121680043Y-89948714D01*
X121579427Y-89751243D01*
X121449160Y-89571946D01*
X121292453Y-89415239D01*
X121113156Y-89284972D01*
X120915685Y-89184356D01*
X120915683Y-89184355D01*
X120704909Y-89115869D01*
X120629200Y-89103878D01*
X120629200Y-90843026D01*
X120606791Y-90830089D01*
X120454191Y-90789200D01*
X120296209Y-90789200D01*
X120143609Y-90830089D01*
X120121200Y-90843026D01*
X120121200Y-89103878D01*
X120045490Y-89115869D01*
X119834716Y-89184355D01*
X119834714Y-89184356D01*
X119637243Y-89284972D01*
X119457946Y-89415239D01*
X119301239Y-89571946D01*
X119170972Y-89751243D01*
X119070356Y-89948714D01*
X119070355Y-89948716D01*
X119001870Y-90159489D01*
X118967200Y-90378391D01*
X118283700Y-90378391D01*
X118283700Y-90378349D01*
X118249018Y-90159376D01*
X118180508Y-89948524D01*
X118079857Y-89750985D01*
X117949543Y-89571624D01*
X117949541Y-89571621D01*
X117792778Y-89414858D01*
X117613418Y-89284545D01*
X117613417Y-89284544D01*
X117613415Y-89284543D01*
X117415876Y-89183892D01*
X117415873Y-89183891D01*
X117415871Y-89183890D01*
X117205029Y-89115383D01*
X117205025Y-89115382D01*
X117205024Y-89115382D01*
X116986051Y-89080700D01*
X116764349Y-89080700D01*
X116545376Y-89115382D01*
X116545370Y-89115383D01*
X116334528Y-89183890D01*
X116334522Y-89183893D01*
X116136981Y-89284545D01*
X115957621Y-89414858D01*
X115800858Y-89571621D01*
X115670545Y-89750981D01*
X115569893Y-89948522D01*
X115569890Y-89948528D01*
X115501383Y-90159370D01*
X115501382Y-90159375D01*
X115501382Y-90159376D01*
X115466700Y-90378349D01*
X114783700Y-90378349D01*
X114749018Y-90159376D01*
X114680508Y-89948524D01*
X114579857Y-89750985D01*
X114449543Y-89571624D01*
X114449541Y-89571621D01*
X114292778Y-89414858D01*
X114113418Y-89284545D01*
X114113417Y-89284544D01*
X114113415Y-89284543D01*
X113915876Y-89183892D01*
X113915873Y-89183891D01*
X113915871Y-89183890D01*
X113705029Y-89115383D01*
X113705025Y-89115382D01*
X113705024Y-89115382D01*
X113486051Y-89080700D01*
X113264349Y-89080700D01*
X113045376Y-89115382D01*
X113045370Y-89115383D01*
X112834528Y-89183890D01*
X112834522Y-89183893D01*
X112636981Y-89284545D01*
X112457621Y-89414858D01*
X112300858Y-89571621D01*
X112170545Y-89750981D01*
X112069893Y-89948522D01*
X112069890Y-89948528D01*
X112001383Y-90159370D01*
X112001382Y-90159375D01*
X112001382Y-90159376D01*
X111966700Y-90378349D01*
X111283700Y-90378349D01*
X111249018Y-90159376D01*
X111180508Y-89948524D01*
X111079857Y-89750985D01*
X110949543Y-89571624D01*
X110949541Y-89571621D01*
X110792778Y-89414858D01*
X110613418Y-89284545D01*
X110613417Y-89284544D01*
X110613415Y-89284543D01*
X110415876Y-89183892D01*
X110415873Y-89183891D01*
X110415871Y-89183890D01*
X110205029Y-89115383D01*
X110205025Y-89115382D01*
X110205024Y-89115382D01*
X109986051Y-89080700D01*
X109764349Y-89080700D01*
X109545376Y-89115382D01*
X109545370Y-89115383D01*
X109334528Y-89183890D01*
X109334522Y-89183893D01*
X109136981Y-89284545D01*
X108957621Y-89414858D01*
X108800858Y-89571621D01*
X108670545Y-89750981D01*
X108569893Y-89948522D01*
X108569890Y-89948528D01*
X108501383Y-90159370D01*
X108501382Y-90159375D01*
X108501382Y-90159376D01*
X108466700Y-90378349D01*
X107783700Y-90378349D01*
X107749018Y-90159376D01*
X107680508Y-89948524D01*
X107579857Y-89750985D01*
X107449543Y-89571624D01*
X107449541Y-89571621D01*
X107292778Y-89414858D01*
X107113418Y-89284545D01*
X107113417Y-89284544D01*
X107113415Y-89284543D01*
X106915876Y-89183892D01*
X106915873Y-89183891D01*
X106915871Y-89183890D01*
X106705029Y-89115383D01*
X106705025Y-89115382D01*
X106705024Y-89115382D01*
X106486051Y-89080700D01*
X106264349Y-89080700D01*
X106045376Y-89115382D01*
X106045370Y-89115383D01*
X105834528Y-89183890D01*
X105834522Y-89183893D01*
X105636981Y-89284545D01*
X105457621Y-89414858D01*
X105300858Y-89571621D01*
X105170545Y-89750981D01*
X105069893Y-89948522D01*
X105069890Y-89948528D01*
X105001383Y-90159370D01*
X105001382Y-90159375D01*
X105001382Y-90159376D01*
X104966700Y-90378349D01*
X104283700Y-90378349D01*
X104249018Y-90159376D01*
X104180508Y-89948524D01*
X104079857Y-89750985D01*
X103949543Y-89571624D01*
X103949541Y-89571621D01*
X103792778Y-89414858D01*
X103613418Y-89284545D01*
X103613417Y-89284544D01*
X103613415Y-89284543D01*
X103415876Y-89183892D01*
X103415873Y-89183891D01*
X103415871Y-89183890D01*
X103205029Y-89115383D01*
X103205025Y-89115382D01*
X103205024Y-89115382D01*
X102986051Y-89080700D01*
X102764349Y-89080700D01*
X102545376Y-89115382D01*
X102545370Y-89115383D01*
X102334528Y-89183890D01*
X102334522Y-89183893D01*
X102136981Y-89284545D01*
X101957621Y-89414858D01*
X101800858Y-89571621D01*
X101670545Y-89750981D01*
X101569893Y-89948522D01*
X101569890Y-89948528D01*
X101501383Y-90159370D01*
X101501382Y-90159375D01*
X101501382Y-90159376D01*
X101466700Y-90378349D01*
X100783700Y-90378349D01*
X100749018Y-90159376D01*
X100680508Y-89948524D01*
X100579857Y-89750985D01*
X100449543Y-89571624D01*
X100449541Y-89571621D01*
X100292778Y-89414858D01*
X100113418Y-89284545D01*
X100113417Y-89284544D01*
X100113415Y-89284543D01*
X99915876Y-89183892D01*
X99915873Y-89183891D01*
X99915871Y-89183890D01*
X99705029Y-89115383D01*
X99705025Y-89115382D01*
X99705024Y-89115382D01*
X99486051Y-89080700D01*
X99264349Y-89080700D01*
X99045376Y-89115382D01*
X99045370Y-89115383D01*
X98834528Y-89183890D01*
X98834522Y-89183893D01*
X98636981Y-89284545D01*
X98457621Y-89414858D01*
X98300858Y-89571621D01*
X98170545Y-89750981D01*
X98069893Y-89948522D01*
X98069890Y-89948528D01*
X98001383Y-90159370D01*
X98001382Y-90159375D01*
X98001382Y-90159376D01*
X97966700Y-90378349D01*
X97283700Y-90378349D01*
X97249018Y-90159376D01*
X97180508Y-89948524D01*
X97079857Y-89750985D01*
X96949543Y-89571624D01*
X96949541Y-89571621D01*
X96792778Y-89414858D01*
X96613418Y-89284545D01*
X96613417Y-89284544D01*
X96613415Y-89284543D01*
X96415876Y-89183892D01*
X96415873Y-89183891D01*
X96415871Y-89183890D01*
X96205029Y-89115383D01*
X96205025Y-89115382D01*
X96205024Y-89115382D01*
X95986051Y-89080700D01*
X95764349Y-89080700D01*
X95545376Y-89115382D01*
X95545370Y-89115383D01*
X95334528Y-89183890D01*
X95334522Y-89183893D01*
X95136981Y-89284545D01*
X94957621Y-89414858D01*
X94800858Y-89571621D01*
X94670545Y-89750981D01*
X94569893Y-89948522D01*
X94569890Y-89948528D01*
X94501383Y-90159370D01*
X94501382Y-90159375D01*
X94501382Y-90159376D01*
X94466700Y-90378349D01*
X93783700Y-90378349D01*
X93749018Y-90159376D01*
X93680508Y-89948524D01*
X93579857Y-89750985D01*
X93449543Y-89571624D01*
X93449541Y-89571621D01*
X93292778Y-89414858D01*
X93113418Y-89284545D01*
X93113417Y-89284544D01*
X93113415Y-89284543D01*
X92915876Y-89183892D01*
X92915873Y-89183891D01*
X92915871Y-89183890D01*
X92705029Y-89115383D01*
X92705025Y-89115382D01*
X92705024Y-89115382D01*
X92486051Y-89080700D01*
X92264349Y-89080700D01*
X92045376Y-89115382D01*
X92045370Y-89115383D01*
X91834528Y-89183890D01*
X91834522Y-89183893D01*
X91636981Y-89284545D01*
X91457621Y-89414858D01*
X91300858Y-89571621D01*
X91170545Y-89750981D01*
X91069893Y-89948522D01*
X91069890Y-89948528D01*
X91001383Y-90159370D01*
X91001382Y-90159375D01*
X91001382Y-90159376D01*
X90966700Y-90378349D01*
X90283699Y-90378349D01*
X90283699Y-89788656D01*
X90273087Y-89684774D01*
X90217315Y-89516462D01*
X90124230Y-89365548D01*
X90124229Y-89365547D01*
X90124224Y-89365541D01*
X89998858Y-89240175D01*
X89998852Y-89240170D01*
X89847938Y-89147085D01*
X89752263Y-89115382D01*
X89679627Y-89091313D01*
X89679620Y-89091312D01*
X89575753Y-89080700D01*
X88174655Y-89080700D01*
X88070774Y-89091312D01*
X87902461Y-89147085D01*
X87751547Y-89240170D01*
X87751541Y-89240175D01*
X87626175Y-89365541D01*
X87626170Y-89365547D01*
X87533085Y-89516462D01*
X87477313Y-89684772D01*
X87477312Y-89684779D01*
X87466700Y-89788646D01*
X68087026Y-89788646D01*
X67956900Y-89734746D01*
X67956897Y-89734745D01*
X67956895Y-89734744D01*
X67722582Y-89671960D01*
X67482090Y-89640300D01*
X67482088Y-89640300D01*
X67239512Y-89640300D01*
X67239509Y-89640300D01*
X66999017Y-89671960D01*
X66764704Y-89734744D01*
X66764700Y-89734746D01*
X66634550Y-89788656D01*
X66540586Y-89827577D01*
X66540575Y-89827582D01*
X66330514Y-89948861D01*
X66138062Y-90096535D01*
X66138051Y-90096544D01*
X65966544Y-90268051D01*
X65966535Y-90268062D01*
X65818861Y-90460514D01*
X65697582Y-90670575D01*
X65697577Y-90670586D01*
X65697576Y-90670588D01*
X65631509Y-90830089D01*
X65604746Y-90894700D01*
X65604744Y-90894704D01*
X65541960Y-91129017D01*
X65510300Y-91369509D01*
X63906400Y-91369509D01*
X63906400Y-78295500D01*
X64345654Y-78295500D01*
X64364607Y-78524219D01*
X64420941Y-78746681D01*
X64420944Y-78746688D01*
X64513130Y-78956850D01*
X64513131Y-78956851D01*
X64638653Y-79148977D01*
X64700632Y-79216304D01*
X64751686Y-79271764D01*
X64783106Y-79335429D01*
X64775119Y-79405975D01*
X64730260Y-79461004D01*
X64703017Y-79475157D01*
X64612933Y-79508756D01*
X64495995Y-79596295D01*
X64408455Y-79713234D01*
X64408455Y-79713235D01*
X64357405Y-79850106D01*
X64350900Y-79910602D01*
X64350900Y-80581500D01*
X65221936Y-80581500D01*
X65202647Y-80614909D01*
X65163700Y-80760261D01*
X65163700Y-80910739D01*
X65202647Y-81056091D01*
X65221936Y-81089500D01*
X64350900Y-81089500D01*
X64350900Y-81760397D01*
X64357405Y-81820893D01*
X64408455Y-81957764D01*
X64408455Y-81957765D01*
X64495995Y-82074704D01*
X64612934Y-82162244D01*
X64749806Y-82213294D01*
X64810302Y-82219799D01*
X64810315Y-82219800D01*
X65481200Y-82219800D01*
X65481200Y-81348764D01*
X65514609Y-81368053D01*
X65659961Y-81407000D01*
X65810439Y-81407000D01*
X65955791Y-81368053D01*
X65989200Y-81348764D01*
X65989200Y-82219800D01*
X66660085Y-82219800D01*
X66660097Y-82219799D01*
X66720593Y-82213294D01*
X66857464Y-82162244D01*
X66857465Y-82162244D01*
X66974404Y-82074704D01*
X67061944Y-81957765D01*
X67061944Y-81957764D01*
X67112994Y-81820893D01*
X67119499Y-81760397D01*
X67119500Y-81760385D01*
X67119500Y-81089500D01*
X66248464Y-81089500D01*
X66267753Y-81056091D01*
X66306700Y-80910739D01*
X66306700Y-80760261D01*
X66267753Y-80614909D01*
X66248464Y-80581500D01*
X67119500Y-80581500D01*
X67119500Y-79910614D01*
X67119499Y-79910602D01*
X67112994Y-79850106D01*
X67061944Y-79713235D01*
X67061944Y-79713234D01*
X66974404Y-79596295D01*
X66857465Y-79508755D01*
X66767383Y-79475157D01*
X66710547Y-79432610D01*
X66685736Y-79366090D01*
X66700827Y-79296716D01*
X66718714Y-79271763D01*
X66831747Y-79148977D01*
X66957269Y-78956851D01*
X67049457Y-78746685D01*
X67105794Y-78524212D01*
X67124746Y-78295500D01*
X76232854Y-78295500D01*
X76251807Y-78524219D01*
X76308141Y-78746681D01*
X76308144Y-78746688D01*
X76400330Y-78956850D01*
X76400331Y-78956851D01*
X76525853Y-79148977D01*
X76587832Y-79216304D01*
X76638886Y-79271764D01*
X76670306Y-79335429D01*
X76662319Y-79405975D01*
X76617460Y-79461004D01*
X76590217Y-79475157D01*
X76500133Y-79508756D01*
X76383195Y-79596295D01*
X76295655Y-79713234D01*
X76295655Y-79713235D01*
X76244605Y-79850106D01*
X76238100Y-79910602D01*
X76238100Y-80581500D01*
X77109136Y-80581500D01*
X77089847Y-80614909D01*
X77050900Y-80760261D01*
X77050900Y-80910739D01*
X77089847Y-81056091D01*
X77109136Y-81089500D01*
X76238100Y-81089500D01*
X76238100Y-81760397D01*
X76244605Y-81820893D01*
X76295655Y-81957764D01*
X76295655Y-81957765D01*
X76383195Y-82074704D01*
X76500134Y-82162244D01*
X76637006Y-82213294D01*
X76697502Y-82219799D01*
X76697515Y-82219800D01*
X77368400Y-82219800D01*
X77368400Y-81348764D01*
X77401809Y-81368053D01*
X77547161Y-81407000D01*
X77697639Y-81407000D01*
X77842991Y-81368053D01*
X77876400Y-81348764D01*
X77876400Y-82219800D01*
X78547285Y-82219800D01*
X78547297Y-82219799D01*
X78607793Y-82213294D01*
X78744664Y-82162244D01*
X78744665Y-82162244D01*
X78861604Y-82074704D01*
X78949144Y-81957765D01*
X78949144Y-81957764D01*
X79000194Y-81820893D01*
X79006699Y-81760397D01*
X79006700Y-81760385D01*
X79006700Y-81089500D01*
X78135664Y-81089500D01*
X78154953Y-81056091D01*
X78193900Y-80910739D01*
X78193900Y-80760261D01*
X78154953Y-80614909D01*
X78135664Y-80581500D01*
X79006700Y-80581500D01*
X79006700Y-79910614D01*
X79006699Y-79910602D01*
X79000194Y-79850106D01*
X78949144Y-79713235D01*
X78949144Y-79713234D01*
X78861604Y-79596295D01*
X78744665Y-79508755D01*
X78654583Y-79475157D01*
X78597747Y-79432610D01*
X78572936Y-79366090D01*
X78588027Y-79296716D01*
X78605914Y-79271763D01*
X78718947Y-79148977D01*
X78844469Y-78956851D01*
X78936657Y-78746685D01*
X78992994Y-78524212D01*
X79011946Y-78295500D01*
X87713654Y-78295500D01*
X87732607Y-78524219D01*
X87788941Y-78746681D01*
X87788944Y-78746688D01*
X87881130Y-78956850D01*
X87881131Y-78956851D01*
X88006653Y-79148977D01*
X88068632Y-79216304D01*
X88119686Y-79271764D01*
X88151106Y-79335429D01*
X88143119Y-79405975D01*
X88098260Y-79461004D01*
X88071017Y-79475157D01*
X87980933Y-79508756D01*
X87863995Y-79596295D01*
X87776455Y-79713234D01*
X87776455Y-79713235D01*
X87725405Y-79850106D01*
X87718900Y-79910602D01*
X87718900Y-80581500D01*
X88589936Y-80581500D01*
X88570647Y-80614909D01*
X88531700Y-80760261D01*
X88531700Y-80910739D01*
X88570647Y-81056091D01*
X88589936Y-81089500D01*
X87718900Y-81089500D01*
X87718900Y-81760397D01*
X87725405Y-81820893D01*
X87776455Y-81957764D01*
X87776455Y-81957765D01*
X87863995Y-82074704D01*
X87980934Y-82162244D01*
X88117806Y-82213294D01*
X88178302Y-82219799D01*
X88178315Y-82219800D01*
X88849200Y-82219800D01*
X88849200Y-81348764D01*
X88882609Y-81368053D01*
X89027961Y-81407000D01*
X89178439Y-81407000D01*
X89323791Y-81368053D01*
X89357200Y-81348764D01*
X89357200Y-82219800D01*
X90028085Y-82219800D01*
X90028097Y-82219799D01*
X90088593Y-82213294D01*
X90225464Y-82162244D01*
X90225465Y-82162244D01*
X90342404Y-82074704D01*
X90429944Y-81957765D01*
X90429944Y-81957764D01*
X90480994Y-81820893D01*
X90487499Y-81760397D01*
X90487500Y-81760385D01*
X90487500Y-81089500D01*
X89616464Y-81089500D01*
X89635753Y-81056091D01*
X89674700Y-80910739D01*
X89674700Y-80760261D01*
X89635753Y-80614909D01*
X89616464Y-80581500D01*
X90487500Y-80581500D01*
X90487500Y-79910614D01*
X90487499Y-79910602D01*
X90480994Y-79850106D01*
X90429944Y-79713235D01*
X90429944Y-79713234D01*
X90342404Y-79596295D01*
X90225465Y-79508755D01*
X90135383Y-79475157D01*
X90078547Y-79432610D01*
X90053736Y-79366090D01*
X90068827Y-79296716D01*
X90086714Y-79271763D01*
X90199747Y-79148977D01*
X90325269Y-78956851D01*
X90417457Y-78746685D01*
X90473794Y-78524212D01*
X90492746Y-78295500D01*
X98737254Y-78295500D01*
X98756207Y-78524219D01*
X98812541Y-78746681D01*
X98812544Y-78746688D01*
X98904730Y-78956850D01*
X98904731Y-78956851D01*
X99030253Y-79148977D01*
X99092232Y-79216304D01*
X99143286Y-79271764D01*
X99174706Y-79335429D01*
X99166719Y-79405975D01*
X99121860Y-79461004D01*
X99094617Y-79475157D01*
X99004533Y-79508756D01*
X98887595Y-79596295D01*
X98800055Y-79713234D01*
X98800055Y-79713235D01*
X98749005Y-79850106D01*
X98742500Y-79910602D01*
X98742500Y-80581500D01*
X99613536Y-80581500D01*
X99594247Y-80614909D01*
X99555300Y-80760261D01*
X99555300Y-80910739D01*
X99594247Y-81056091D01*
X99613536Y-81089500D01*
X98742500Y-81089500D01*
X98742500Y-81760397D01*
X98749005Y-81820893D01*
X98800055Y-81957764D01*
X98800055Y-81957765D01*
X98887595Y-82074704D01*
X99004534Y-82162244D01*
X99141406Y-82213294D01*
X99201902Y-82219799D01*
X99201915Y-82219800D01*
X99872800Y-82219800D01*
X99872800Y-81348764D01*
X99906209Y-81368053D01*
X100051561Y-81407000D01*
X100202039Y-81407000D01*
X100347391Y-81368053D01*
X100380800Y-81348764D01*
X100380800Y-82219800D01*
X101051685Y-82219800D01*
X101051697Y-82219799D01*
X101112193Y-82213294D01*
X101249064Y-82162244D01*
X101249065Y-82162244D01*
X101366004Y-82074704D01*
X101453544Y-81957765D01*
X101453544Y-81957764D01*
X101504594Y-81820893D01*
X101511099Y-81760397D01*
X101511100Y-81760385D01*
X101511100Y-81089500D01*
X100640064Y-81089500D01*
X100659353Y-81056091D01*
X100698300Y-80910739D01*
X100698300Y-80760261D01*
X100659353Y-80614909D01*
X100640064Y-80581500D01*
X101511100Y-80581500D01*
X101511100Y-79910614D01*
X101511099Y-79910602D01*
X101504594Y-79850106D01*
X101453544Y-79713235D01*
X101453544Y-79713234D01*
X101366004Y-79596295D01*
X101249065Y-79508755D01*
X101158983Y-79475157D01*
X101102147Y-79432610D01*
X101077336Y-79366090D01*
X101092427Y-79296716D01*
X101110314Y-79271763D01*
X101223347Y-79148977D01*
X101348869Y-78956851D01*
X101441057Y-78746685D01*
X101497394Y-78524212D01*
X101516346Y-78295500D01*
X109811654Y-78295500D01*
X109830607Y-78524219D01*
X109886941Y-78746681D01*
X109886944Y-78746688D01*
X109979130Y-78956850D01*
X109979131Y-78956851D01*
X110104653Y-79148977D01*
X110166632Y-79216304D01*
X110217686Y-79271764D01*
X110249106Y-79335429D01*
X110241119Y-79405975D01*
X110196260Y-79461004D01*
X110169017Y-79475157D01*
X110078933Y-79508756D01*
X109961995Y-79596295D01*
X109874455Y-79713234D01*
X109874455Y-79713235D01*
X109823405Y-79850106D01*
X109816900Y-79910602D01*
X109816900Y-80581500D01*
X110687936Y-80581500D01*
X110668647Y-80614909D01*
X110629700Y-80760261D01*
X110629700Y-80910739D01*
X110668647Y-81056091D01*
X110687936Y-81089500D01*
X109816900Y-81089500D01*
X109816900Y-81760397D01*
X109823405Y-81820893D01*
X109874455Y-81957764D01*
X109874455Y-81957765D01*
X109961995Y-82074704D01*
X110078934Y-82162244D01*
X110215806Y-82213294D01*
X110276302Y-82219799D01*
X110276315Y-82219800D01*
X110947200Y-82219800D01*
X110947200Y-81348764D01*
X110980609Y-81368053D01*
X111125961Y-81407000D01*
X111276439Y-81407000D01*
X111421791Y-81368053D01*
X111455200Y-81348764D01*
X111455200Y-82219800D01*
X112126085Y-82219800D01*
X112126097Y-82219799D01*
X112186593Y-82213294D01*
X112323464Y-82162244D01*
X112323465Y-82162244D01*
X112440404Y-82074704D01*
X112527944Y-81957765D01*
X112527944Y-81957764D01*
X112578994Y-81820893D01*
X112585499Y-81760397D01*
X112585500Y-81760385D01*
X112585500Y-81089500D01*
X111714464Y-81089500D01*
X111733753Y-81056091D01*
X111772700Y-80910739D01*
X111772700Y-80760261D01*
X111733753Y-80614909D01*
X111714464Y-80581500D01*
X112585500Y-80581500D01*
X112585500Y-79910614D01*
X112585499Y-79910602D01*
X112578994Y-79850106D01*
X112527944Y-79713235D01*
X112527944Y-79713234D01*
X112440404Y-79596295D01*
X112323465Y-79508755D01*
X112233383Y-79475157D01*
X112176547Y-79432610D01*
X112151736Y-79366090D01*
X112166827Y-79296716D01*
X112184714Y-79271763D01*
X112297747Y-79148977D01*
X112423269Y-78956851D01*
X112515457Y-78746685D01*
X112571794Y-78524212D01*
X112590746Y-78295500D01*
X119717654Y-78295500D01*
X119736607Y-78524219D01*
X119792941Y-78746681D01*
X119792944Y-78746688D01*
X119885130Y-78956850D01*
X119885131Y-78956851D01*
X120010653Y-79148977D01*
X120072632Y-79216304D01*
X120123686Y-79271764D01*
X120155106Y-79335429D01*
X120147119Y-79405975D01*
X120102260Y-79461004D01*
X120075017Y-79475157D01*
X119984933Y-79508756D01*
X119867995Y-79596295D01*
X119780455Y-79713234D01*
X119780455Y-79713235D01*
X119729405Y-79850106D01*
X119722900Y-79910602D01*
X119722900Y-80581500D01*
X120593936Y-80581500D01*
X120574647Y-80614909D01*
X120535700Y-80760261D01*
X120535700Y-80910739D01*
X120574647Y-81056091D01*
X120593936Y-81089500D01*
X119722900Y-81089500D01*
X119722900Y-81760397D01*
X119729405Y-81820893D01*
X119780455Y-81957764D01*
X119780455Y-81957765D01*
X119867995Y-82074704D01*
X119984934Y-82162244D01*
X120121806Y-82213294D01*
X120182302Y-82219799D01*
X120182315Y-82219800D01*
X120853200Y-82219800D01*
X120853200Y-81348764D01*
X120886609Y-81368053D01*
X121031961Y-81407000D01*
X121182439Y-81407000D01*
X121327791Y-81368053D01*
X121361200Y-81348764D01*
X121361200Y-82219800D01*
X122032085Y-82219800D01*
X122032097Y-82219799D01*
X122092593Y-82213294D01*
X122229464Y-82162244D01*
X122229465Y-82162244D01*
X122346404Y-82074704D01*
X122433944Y-81957765D01*
X122433944Y-81957764D01*
X122484994Y-81820893D01*
X122491499Y-81760397D01*
X122491500Y-81760385D01*
X122491500Y-81089500D01*
X121620464Y-81089500D01*
X121639753Y-81056091D01*
X121678700Y-80910739D01*
X121678700Y-80760261D01*
X121639753Y-80614909D01*
X121620464Y-80581500D01*
X122491500Y-80581500D01*
X122491500Y-79910614D01*
X122491499Y-79910602D01*
X122484994Y-79850106D01*
X122433944Y-79713235D01*
X122433944Y-79713234D01*
X122346404Y-79596295D01*
X122229465Y-79508755D01*
X122139383Y-79475157D01*
X122082547Y-79432610D01*
X122057736Y-79366090D01*
X122072827Y-79296716D01*
X122090714Y-79271763D01*
X122203747Y-79148977D01*
X122329269Y-78956851D01*
X122421457Y-78746685D01*
X122477794Y-78524212D01*
X122496746Y-78295500D01*
X129623654Y-78295500D01*
X129642607Y-78524219D01*
X129698941Y-78746681D01*
X129698944Y-78746688D01*
X129791130Y-78956850D01*
X129791131Y-78956851D01*
X129916653Y-79148977D01*
X129978632Y-79216304D01*
X130029686Y-79271764D01*
X130061106Y-79335429D01*
X130053119Y-79405975D01*
X130008260Y-79461004D01*
X129981017Y-79475157D01*
X129890933Y-79508756D01*
X129773995Y-79596295D01*
X129686455Y-79713234D01*
X129686455Y-79713235D01*
X129635405Y-79850106D01*
X129628900Y-79910602D01*
X129628900Y-80581500D01*
X130499936Y-80581500D01*
X130480647Y-80614909D01*
X130441700Y-80760261D01*
X130441700Y-80910739D01*
X130480647Y-81056091D01*
X130499936Y-81089500D01*
X129628900Y-81089500D01*
X129628900Y-81760397D01*
X129635405Y-81820893D01*
X129686455Y-81957764D01*
X129686455Y-81957765D01*
X129773995Y-82074704D01*
X129890934Y-82162244D01*
X130027806Y-82213294D01*
X130088302Y-82219799D01*
X130088315Y-82219800D01*
X130759200Y-82219800D01*
X130759200Y-81348764D01*
X130792609Y-81368053D01*
X130937961Y-81407000D01*
X131088439Y-81407000D01*
X131233791Y-81368053D01*
X131267200Y-81348764D01*
X131267200Y-82219800D01*
X131938085Y-82219800D01*
X131938097Y-82219799D01*
X131998593Y-82213294D01*
X132135464Y-82162244D01*
X132135465Y-82162244D01*
X132252404Y-82074704D01*
X132339944Y-81957765D01*
X132339944Y-81957764D01*
X132390994Y-81820893D01*
X132397499Y-81760397D01*
X132397500Y-81760385D01*
X132397500Y-81089500D01*
X131526464Y-81089500D01*
X131545753Y-81056091D01*
X131584700Y-80910739D01*
X131584700Y-80760261D01*
X131545753Y-80614909D01*
X131526464Y-80581500D01*
X132397500Y-80581500D01*
X132397500Y-79910614D01*
X132397499Y-79910602D01*
X132390994Y-79850106D01*
X132339944Y-79713235D01*
X132339944Y-79713234D01*
X132252404Y-79596295D01*
X132135465Y-79508755D01*
X132045383Y-79475157D01*
X131988547Y-79432610D01*
X131963736Y-79366090D01*
X131978827Y-79296716D01*
X131996714Y-79271763D01*
X132109747Y-79148977D01*
X132235269Y-78956851D01*
X132327457Y-78746685D01*
X132383794Y-78524212D01*
X132402746Y-78295500D01*
X140698054Y-78295500D01*
X140717007Y-78524219D01*
X140773341Y-78746681D01*
X140773344Y-78746688D01*
X140865530Y-78956850D01*
X140865531Y-78956851D01*
X140991053Y-79148977D01*
X141053032Y-79216304D01*
X141104086Y-79271764D01*
X141135506Y-79335429D01*
X141127519Y-79405975D01*
X141082660Y-79461004D01*
X141055417Y-79475157D01*
X140965333Y-79508756D01*
X140848395Y-79596295D01*
X140760855Y-79713234D01*
X140760855Y-79713235D01*
X140709805Y-79850106D01*
X140703300Y-79910602D01*
X140703300Y-80581500D01*
X141574336Y-80581500D01*
X141555047Y-80614909D01*
X141516100Y-80760261D01*
X141516100Y-80910739D01*
X141555047Y-81056091D01*
X141574336Y-81089500D01*
X140703300Y-81089500D01*
X140703300Y-81760397D01*
X140709805Y-81820893D01*
X140760855Y-81957764D01*
X140760855Y-81957765D01*
X140848395Y-82074704D01*
X140965334Y-82162244D01*
X141102206Y-82213294D01*
X141162702Y-82219799D01*
X141162715Y-82219800D01*
X141833600Y-82219800D01*
X141833600Y-81348764D01*
X141867009Y-81368053D01*
X142012361Y-81407000D01*
X142162839Y-81407000D01*
X142308191Y-81368053D01*
X142341600Y-81348764D01*
X142341600Y-82219800D01*
X143012485Y-82219800D01*
X143012497Y-82219799D01*
X143072993Y-82213294D01*
X143209864Y-82162244D01*
X143209865Y-82162244D01*
X143326804Y-82074704D01*
X143414344Y-81957765D01*
X143414344Y-81957764D01*
X143465394Y-81820893D01*
X143471899Y-81760397D01*
X143471900Y-81760385D01*
X143471900Y-81089500D01*
X142600864Y-81089500D01*
X142620153Y-81056091D01*
X142659100Y-80910739D01*
X142659100Y-80760261D01*
X142620153Y-80614909D01*
X142600864Y-80581500D01*
X143471900Y-80581500D01*
X143471900Y-79910614D01*
X143471899Y-79910602D01*
X143465394Y-79850106D01*
X143414344Y-79713235D01*
X143414344Y-79713234D01*
X143326804Y-79596295D01*
X143209865Y-79508755D01*
X143119783Y-79475157D01*
X143062947Y-79432610D01*
X143038136Y-79366090D01*
X143053227Y-79296716D01*
X143071114Y-79271763D01*
X143184147Y-79148977D01*
X143309669Y-78956851D01*
X143401857Y-78746685D01*
X143458194Y-78524212D01*
X143477146Y-78295500D01*
X143458194Y-78066788D01*
X143401857Y-77844315D01*
X143309669Y-77634149D01*
X143184147Y-77442022D01*
X143028720Y-77273183D01*
X142847610Y-77132219D01*
X142847609Y-77132218D01*
X142755001Y-77082101D01*
X142645774Y-77022991D01*
X142645772Y-77022990D01*
X142645771Y-77022989D01*
X142428717Y-76948475D01*
X142428710Y-76948473D01*
X142331832Y-76932307D01*
X142202348Y-76910700D01*
X141972852Y-76910700D01*
X141859567Y-76929603D01*
X141746489Y-76948473D01*
X141746482Y-76948475D01*
X141529428Y-77022989D01*
X141529426Y-77022991D01*
X141327590Y-77132218D01*
X141327589Y-77132219D01*
X141146479Y-77273183D01*
X140991052Y-77442022D01*
X140865530Y-77634149D01*
X140773344Y-77844311D01*
X140773341Y-77844318D01*
X140717007Y-78066780D01*
X140698054Y-78295500D01*
X132402746Y-78295500D01*
X132383794Y-78066788D01*
X132327457Y-77844315D01*
X132235269Y-77634149D01*
X132109747Y-77442022D01*
X131954320Y-77273183D01*
X131773210Y-77132219D01*
X131773209Y-77132218D01*
X131680601Y-77082101D01*
X131571374Y-77022991D01*
X131571372Y-77022990D01*
X131571371Y-77022989D01*
X131354317Y-76948475D01*
X131354310Y-76948473D01*
X131257432Y-76932307D01*
X131127948Y-76910700D01*
X130898452Y-76910700D01*
X130785167Y-76929603D01*
X130672089Y-76948473D01*
X130672082Y-76948475D01*
X130455028Y-77022989D01*
X130455026Y-77022991D01*
X130253190Y-77132218D01*
X130253189Y-77132219D01*
X130072079Y-77273183D01*
X129916652Y-77442022D01*
X129791130Y-77634149D01*
X129698944Y-77844311D01*
X129698941Y-77844318D01*
X129642607Y-78066780D01*
X129623654Y-78295500D01*
X122496746Y-78295500D01*
X122477794Y-78066788D01*
X122421457Y-77844315D01*
X122329269Y-77634149D01*
X122203747Y-77442022D01*
X122048320Y-77273183D01*
X121867210Y-77132219D01*
X121867209Y-77132218D01*
X121774601Y-77082101D01*
X121665374Y-77022991D01*
X121665372Y-77022990D01*
X121665371Y-77022989D01*
X121448317Y-76948475D01*
X121448310Y-76948473D01*
X121351432Y-76932307D01*
X121221948Y-76910700D01*
X120992452Y-76910700D01*
X120879167Y-76929603D01*
X120766089Y-76948473D01*
X120766082Y-76948475D01*
X120549028Y-77022989D01*
X120549026Y-77022991D01*
X120347190Y-77132218D01*
X120347189Y-77132219D01*
X120166079Y-77273183D01*
X120010652Y-77442022D01*
X119885130Y-77634149D01*
X119792944Y-77844311D01*
X119792941Y-77844318D01*
X119736607Y-78066780D01*
X119717654Y-78295500D01*
X112590746Y-78295500D01*
X112571794Y-78066788D01*
X112515457Y-77844315D01*
X112423269Y-77634149D01*
X112297747Y-77442022D01*
X112142320Y-77273183D01*
X111961210Y-77132219D01*
X111961209Y-77132218D01*
X111868601Y-77082101D01*
X111759374Y-77022991D01*
X111759372Y-77022990D01*
X111759371Y-77022989D01*
X111542317Y-76948475D01*
X111542310Y-76948473D01*
X111445432Y-76932307D01*
X111315948Y-76910700D01*
X111086452Y-76910700D01*
X110973167Y-76929603D01*
X110860089Y-76948473D01*
X110860082Y-76948475D01*
X110643028Y-77022989D01*
X110643026Y-77022991D01*
X110441190Y-77132218D01*
X110441189Y-77132219D01*
X110260079Y-77273183D01*
X110104652Y-77442022D01*
X109979130Y-77634149D01*
X109886944Y-77844311D01*
X109886941Y-77844318D01*
X109830607Y-78066780D01*
X109811654Y-78295500D01*
X101516346Y-78295500D01*
X101497394Y-78066788D01*
X101441057Y-77844315D01*
X101348869Y-77634149D01*
X101223347Y-77442022D01*
X101067920Y-77273183D01*
X100886810Y-77132219D01*
X100886809Y-77132218D01*
X100794201Y-77082101D01*
X100684974Y-77022991D01*
X100684972Y-77022990D01*
X100684971Y-77022989D01*
X100467917Y-76948475D01*
X100467910Y-76948473D01*
X100371032Y-76932307D01*
X100241548Y-76910700D01*
X100012052Y-76910700D01*
X99898767Y-76929603D01*
X99785689Y-76948473D01*
X99785682Y-76948475D01*
X99568628Y-77022989D01*
X99568626Y-77022991D01*
X99366790Y-77132218D01*
X99366789Y-77132219D01*
X99185679Y-77273183D01*
X99030252Y-77442022D01*
X98904730Y-77634149D01*
X98812544Y-77844311D01*
X98812541Y-77844318D01*
X98756207Y-78066780D01*
X98737254Y-78295500D01*
X90492746Y-78295500D01*
X90473794Y-78066788D01*
X90417457Y-77844315D01*
X90325269Y-77634149D01*
X90199747Y-77442022D01*
X90044320Y-77273183D01*
X89863210Y-77132219D01*
X89863209Y-77132218D01*
X89770601Y-77082101D01*
X89661374Y-77022991D01*
X89661372Y-77022990D01*
X89661371Y-77022989D01*
X89444317Y-76948475D01*
X89444310Y-76948473D01*
X89347432Y-76932307D01*
X89217948Y-76910700D01*
X88988452Y-76910700D01*
X88875167Y-76929603D01*
X88762089Y-76948473D01*
X88762082Y-76948475D01*
X88545028Y-77022989D01*
X88545026Y-77022991D01*
X88343190Y-77132218D01*
X88343189Y-77132219D01*
X88162079Y-77273183D01*
X88006652Y-77442022D01*
X87881130Y-77634149D01*
X87788944Y-77844311D01*
X87788941Y-77844318D01*
X87732607Y-78066780D01*
X87713654Y-78295500D01*
X79011946Y-78295500D01*
X78992994Y-78066788D01*
X78936657Y-77844315D01*
X78844469Y-77634149D01*
X78718947Y-77442022D01*
X78563520Y-77273183D01*
X78382410Y-77132219D01*
X78382409Y-77132218D01*
X78289801Y-77082101D01*
X78180574Y-77022991D01*
X78180572Y-77022990D01*
X78180571Y-77022989D01*
X77963517Y-76948475D01*
X77963510Y-76948473D01*
X77866632Y-76932307D01*
X77737148Y-76910700D01*
X77507652Y-76910700D01*
X77394367Y-76929603D01*
X77281289Y-76948473D01*
X77281282Y-76948475D01*
X77064228Y-77022989D01*
X77064226Y-77022991D01*
X76862390Y-77132218D01*
X76862389Y-77132219D01*
X76681279Y-77273183D01*
X76525852Y-77442022D01*
X76400330Y-77634149D01*
X76308144Y-77844311D01*
X76308141Y-77844318D01*
X76251807Y-78066780D01*
X76232854Y-78295500D01*
X67124746Y-78295500D01*
X67105794Y-78066788D01*
X67049457Y-77844315D01*
X66957269Y-77634149D01*
X66831747Y-77442022D01*
X66676320Y-77273183D01*
X66495210Y-77132219D01*
X66495209Y-77132218D01*
X66402601Y-77082101D01*
X66293374Y-77022991D01*
X66293372Y-77022990D01*
X66293371Y-77022989D01*
X66076317Y-76948475D01*
X66076310Y-76948473D01*
X65979432Y-76932307D01*
X65849948Y-76910700D01*
X65620452Y-76910700D01*
X65507167Y-76929603D01*
X65394089Y-76948473D01*
X65394082Y-76948475D01*
X65177028Y-77022989D01*
X65177026Y-77022991D01*
X64975190Y-77132218D01*
X64975189Y-77132219D01*
X64794079Y-77273183D01*
X64638652Y-77442022D01*
X64513130Y-77634149D01*
X64420944Y-77844311D01*
X64420941Y-77844318D01*
X64364607Y-78066780D01*
X64345654Y-78295500D01*
X63906400Y-78295500D01*
X63906400Y-68135500D01*
X64345654Y-68135500D01*
X64364607Y-68364219D01*
X64420941Y-68586681D01*
X64420944Y-68586688D01*
X64513130Y-68796850D01*
X64638652Y-68988977D01*
X64794079Y-69157816D01*
X64794084Y-69157820D01*
X64794086Y-69157822D01*
X64975190Y-69298781D01*
X65177026Y-69408009D01*
X65177027Y-69408009D01*
X65177028Y-69408010D01*
X65290991Y-69447133D01*
X65394087Y-69482526D01*
X65620452Y-69520300D01*
X65620456Y-69520300D01*
X65849944Y-69520300D01*
X65849948Y-69520300D01*
X66076313Y-69482526D01*
X66293374Y-69408009D01*
X66495210Y-69298781D01*
X66676314Y-69157822D01*
X66831747Y-68988977D01*
X66957269Y-68796851D01*
X67049457Y-68586685D01*
X67105794Y-68364212D01*
X67124746Y-68135500D01*
X76232854Y-68135500D01*
X76251807Y-68364219D01*
X76308141Y-68586681D01*
X76308144Y-68586688D01*
X76400330Y-68796850D01*
X76525852Y-68988977D01*
X76681279Y-69157816D01*
X76681284Y-69157820D01*
X76681286Y-69157822D01*
X76862390Y-69298781D01*
X77064226Y-69408009D01*
X77064227Y-69408009D01*
X77064228Y-69408010D01*
X77178191Y-69447133D01*
X77281287Y-69482526D01*
X77507652Y-69520300D01*
X77507656Y-69520300D01*
X77737144Y-69520300D01*
X77737148Y-69520300D01*
X77963513Y-69482526D01*
X78180574Y-69408009D01*
X78382410Y-69298781D01*
X78563514Y-69157822D01*
X78718947Y-68988977D01*
X78844469Y-68796851D01*
X78936657Y-68586685D01*
X78992994Y-68364212D01*
X79011946Y-68135500D01*
X87713654Y-68135500D01*
X87732607Y-68364219D01*
X87788941Y-68586681D01*
X87788944Y-68586688D01*
X87881130Y-68796850D01*
X88006652Y-68988977D01*
X88162079Y-69157816D01*
X88162084Y-69157820D01*
X88162086Y-69157822D01*
X88343190Y-69298781D01*
X88545026Y-69408009D01*
X88545027Y-69408009D01*
X88545028Y-69408010D01*
X88658991Y-69447133D01*
X88762087Y-69482526D01*
X88988452Y-69520300D01*
X88988456Y-69520300D01*
X89217944Y-69520300D01*
X89217948Y-69520300D01*
X89444313Y-69482526D01*
X89661374Y-69408009D01*
X89863210Y-69298781D01*
X90044314Y-69157822D01*
X90199747Y-68988977D01*
X90325269Y-68796851D01*
X90417457Y-68586685D01*
X90473794Y-68364212D01*
X90492746Y-68135500D01*
X98737254Y-68135500D01*
X98756207Y-68364219D01*
X98812541Y-68586681D01*
X98812544Y-68586688D01*
X98904730Y-68796850D01*
X99030252Y-68988977D01*
X99185679Y-69157816D01*
X99185684Y-69157820D01*
X99185686Y-69157822D01*
X99366790Y-69298781D01*
X99568626Y-69408009D01*
X99568627Y-69408009D01*
X99568628Y-69408010D01*
X99682591Y-69447133D01*
X99785687Y-69482526D01*
X100012052Y-69520300D01*
X100012056Y-69520300D01*
X100241544Y-69520300D01*
X100241548Y-69520300D01*
X100467913Y-69482526D01*
X100684974Y-69408009D01*
X100886810Y-69298781D01*
X101067914Y-69157822D01*
X101223347Y-68988977D01*
X101348869Y-68796851D01*
X101441057Y-68586685D01*
X101497394Y-68364212D01*
X101516346Y-68135500D01*
X109811654Y-68135500D01*
X109830607Y-68364219D01*
X109886941Y-68586681D01*
X109886944Y-68586688D01*
X109979130Y-68796850D01*
X110104652Y-68988977D01*
X110260079Y-69157816D01*
X110260084Y-69157820D01*
X110260086Y-69157822D01*
X110441190Y-69298781D01*
X110643026Y-69408009D01*
X110643027Y-69408009D01*
X110643028Y-69408010D01*
X110756991Y-69447133D01*
X110860087Y-69482526D01*
X111086452Y-69520300D01*
X111086456Y-69520300D01*
X111315944Y-69520300D01*
X111315948Y-69520300D01*
X111542313Y-69482526D01*
X111759374Y-69408009D01*
X111961210Y-69298781D01*
X112142314Y-69157822D01*
X112297747Y-68988977D01*
X112423269Y-68796851D01*
X112515457Y-68586685D01*
X112571794Y-68364212D01*
X112590746Y-68135500D01*
X119717654Y-68135500D01*
X119736607Y-68364219D01*
X119792941Y-68586681D01*
X119792944Y-68586688D01*
X119885130Y-68796850D01*
X120010652Y-68988977D01*
X120166079Y-69157816D01*
X120166084Y-69157820D01*
X120166086Y-69157822D01*
X120347190Y-69298781D01*
X120549026Y-69408009D01*
X120549027Y-69408009D01*
X120549028Y-69408010D01*
X120662991Y-69447133D01*
X120766087Y-69482526D01*
X120992452Y-69520300D01*
X120992456Y-69520300D01*
X121221944Y-69520300D01*
X121221948Y-69520300D01*
X121448313Y-69482526D01*
X121665374Y-69408009D01*
X121867210Y-69298781D01*
X122048314Y-69157822D01*
X122203747Y-68988977D01*
X122329269Y-68796851D01*
X122421457Y-68586685D01*
X122477794Y-68364212D01*
X122496746Y-68135500D01*
X129623654Y-68135500D01*
X129642607Y-68364219D01*
X129698941Y-68586681D01*
X129698944Y-68586688D01*
X129791130Y-68796850D01*
X129916652Y-68988977D01*
X130072079Y-69157816D01*
X130072084Y-69157820D01*
X130072086Y-69157822D01*
X130253190Y-69298781D01*
X130455026Y-69408009D01*
X130455027Y-69408009D01*
X130455028Y-69408010D01*
X130568991Y-69447133D01*
X130672087Y-69482526D01*
X130898452Y-69520300D01*
X130898456Y-69520300D01*
X131127944Y-69520300D01*
X131127948Y-69520300D01*
X131354313Y-69482526D01*
X131571374Y-69408009D01*
X131773210Y-69298781D01*
X131954314Y-69157822D01*
X132109747Y-68988977D01*
X132235269Y-68796851D01*
X132327457Y-68586685D01*
X132383794Y-68364212D01*
X132402746Y-68135500D01*
X140698054Y-68135500D01*
X140717007Y-68364219D01*
X140773341Y-68586681D01*
X140773344Y-68586688D01*
X140865530Y-68796850D01*
X140991052Y-68988977D01*
X141146479Y-69157816D01*
X141146484Y-69157820D01*
X141146486Y-69157822D01*
X141327590Y-69298781D01*
X141529426Y-69408009D01*
X141529427Y-69408009D01*
X141529428Y-69408010D01*
X141643391Y-69447133D01*
X141746487Y-69482526D01*
X141972852Y-69520300D01*
X141972856Y-69520300D01*
X142202344Y-69520300D01*
X142202348Y-69520300D01*
X142428713Y-69482526D01*
X142645774Y-69408009D01*
X142847610Y-69298781D01*
X143028714Y-69157822D01*
X143184147Y-68988977D01*
X143309669Y-68796851D01*
X143401857Y-68586685D01*
X143458194Y-68364212D01*
X143477146Y-68135500D01*
X143458194Y-67906788D01*
X143401857Y-67684315D01*
X143309669Y-67474149D01*
X143184147Y-67282022D01*
X143028720Y-67113183D01*
X142847610Y-66972219D01*
X142847609Y-66972218D01*
X142755001Y-66922101D01*
X142645774Y-66862991D01*
X142645772Y-66862990D01*
X142645771Y-66862989D01*
X142428717Y-66788475D01*
X142428710Y-66788473D01*
X142331832Y-66772307D01*
X142202348Y-66750700D01*
X141972852Y-66750700D01*
X141859567Y-66769603D01*
X141746489Y-66788473D01*
X141746482Y-66788475D01*
X141529428Y-66862989D01*
X141529426Y-66862991D01*
X141327590Y-66972218D01*
X141327589Y-66972219D01*
X141146479Y-67113183D01*
X140991052Y-67282022D01*
X140865530Y-67474149D01*
X140773344Y-67684311D01*
X140773341Y-67684318D01*
X140717007Y-67906780D01*
X140698054Y-68135500D01*
X132402746Y-68135500D01*
X132383794Y-67906788D01*
X132327457Y-67684315D01*
X132235269Y-67474149D01*
X132109747Y-67282022D01*
X131954320Y-67113183D01*
X131773210Y-66972219D01*
X131773209Y-66972218D01*
X131680601Y-66922101D01*
X131571374Y-66862991D01*
X131571372Y-66862990D01*
X131571371Y-66862989D01*
X131354317Y-66788475D01*
X131354310Y-66788473D01*
X131257432Y-66772307D01*
X131127948Y-66750700D01*
X130898452Y-66750700D01*
X130785167Y-66769603D01*
X130672089Y-66788473D01*
X130672082Y-66788475D01*
X130455028Y-66862989D01*
X130455026Y-66862991D01*
X130253190Y-66972218D01*
X130253189Y-66972219D01*
X130072079Y-67113183D01*
X129916652Y-67282022D01*
X129791130Y-67474149D01*
X129698944Y-67684311D01*
X129698941Y-67684318D01*
X129642607Y-67906780D01*
X129623654Y-68135500D01*
X122496746Y-68135500D01*
X122477794Y-67906788D01*
X122421457Y-67684315D01*
X122329269Y-67474149D01*
X122203747Y-67282022D01*
X122048320Y-67113183D01*
X121867210Y-66972219D01*
X121867209Y-66972218D01*
X121774601Y-66922101D01*
X121665374Y-66862991D01*
X121665372Y-66862990D01*
X121665371Y-66862989D01*
X121448317Y-66788475D01*
X121448310Y-66788473D01*
X121351432Y-66772307D01*
X121221948Y-66750700D01*
X120992452Y-66750700D01*
X120879167Y-66769603D01*
X120766089Y-66788473D01*
X120766082Y-66788475D01*
X120549028Y-66862989D01*
X120549026Y-66862991D01*
X120347190Y-66972218D01*
X120347189Y-66972219D01*
X120166079Y-67113183D01*
X120010652Y-67282022D01*
X119885130Y-67474149D01*
X119792944Y-67684311D01*
X119792941Y-67684318D01*
X119736607Y-67906780D01*
X119717654Y-68135500D01*
X112590746Y-68135500D01*
X112571794Y-67906788D01*
X112515457Y-67684315D01*
X112423269Y-67474149D01*
X112297747Y-67282022D01*
X112142320Y-67113183D01*
X111961210Y-66972219D01*
X111961209Y-66972218D01*
X111868601Y-66922101D01*
X111759374Y-66862991D01*
X111759372Y-66862990D01*
X111759371Y-66862989D01*
X111542317Y-66788475D01*
X111542310Y-66788473D01*
X111445432Y-66772307D01*
X111315948Y-66750700D01*
X111086452Y-66750700D01*
X110973167Y-66769603D01*
X110860089Y-66788473D01*
X110860082Y-66788475D01*
X110643028Y-66862989D01*
X110643026Y-66862991D01*
X110441190Y-66972218D01*
X110441189Y-66972219D01*
X110260079Y-67113183D01*
X110104652Y-67282022D01*
X109979130Y-67474149D01*
X109886944Y-67684311D01*
X109886941Y-67684318D01*
X109830607Y-67906780D01*
X109811654Y-68135500D01*
X101516346Y-68135500D01*
X101497394Y-67906788D01*
X101441057Y-67684315D01*
X101348869Y-67474149D01*
X101223347Y-67282022D01*
X101067920Y-67113183D01*
X100886810Y-66972219D01*
X100886809Y-66972218D01*
X100794201Y-66922101D01*
X100684974Y-66862991D01*
X100684972Y-66862990D01*
X100684971Y-66862989D01*
X100467917Y-66788475D01*
X100467910Y-66788473D01*
X100371032Y-66772307D01*
X100241548Y-66750700D01*
X100012052Y-66750700D01*
X99898767Y-66769603D01*
X99785689Y-66788473D01*
X99785682Y-66788475D01*
X99568628Y-66862989D01*
X99568626Y-66862991D01*
X99366790Y-66972218D01*
X99366789Y-66972219D01*
X99185679Y-67113183D01*
X99030252Y-67282022D01*
X98904730Y-67474149D01*
X98812544Y-67684311D01*
X98812541Y-67684318D01*
X98756207Y-67906780D01*
X98737254Y-68135500D01*
X90492746Y-68135500D01*
X90473794Y-67906788D01*
X90417457Y-67684315D01*
X90325269Y-67474149D01*
X90199747Y-67282022D01*
X90044320Y-67113183D01*
X89863210Y-66972219D01*
X89863209Y-66972218D01*
X89770601Y-66922101D01*
X89661374Y-66862991D01*
X89661372Y-66862990D01*
X89661371Y-66862989D01*
X89444317Y-66788475D01*
X89444310Y-66788473D01*
X89347432Y-66772307D01*
X89217948Y-66750700D01*
X88988452Y-66750700D01*
X88875167Y-66769603D01*
X88762089Y-66788473D01*
X88762082Y-66788475D01*
X88545028Y-66862989D01*
X88545026Y-66862991D01*
X88343190Y-66972218D01*
X88343189Y-66972219D01*
X88162079Y-67113183D01*
X88006652Y-67282022D01*
X87881130Y-67474149D01*
X87788944Y-67684311D01*
X87788941Y-67684318D01*
X87732607Y-67906780D01*
X87713654Y-68135500D01*
X79011946Y-68135500D01*
X78992994Y-67906788D01*
X78936657Y-67684315D01*
X78844469Y-67474149D01*
X78718947Y-67282022D01*
X78563520Y-67113183D01*
X78382410Y-66972219D01*
X78382409Y-66972218D01*
X78289801Y-66922101D01*
X78180574Y-66862991D01*
X78180572Y-66862990D01*
X78180571Y-66862989D01*
X77963517Y-66788475D01*
X77963510Y-66788473D01*
X77866632Y-66772307D01*
X77737148Y-66750700D01*
X77507652Y-66750700D01*
X77394367Y-66769603D01*
X77281289Y-66788473D01*
X77281282Y-66788475D01*
X77064228Y-66862989D01*
X77064226Y-66862991D01*
X76862390Y-66972218D01*
X76862389Y-66972219D01*
X76681279Y-67113183D01*
X76525852Y-67282022D01*
X76400330Y-67474149D01*
X76308144Y-67684311D01*
X76308141Y-67684318D01*
X76251807Y-67906780D01*
X76232854Y-68135500D01*
X67124746Y-68135500D01*
X67105794Y-67906788D01*
X67049457Y-67684315D01*
X66957269Y-67474149D01*
X66831747Y-67282022D01*
X66676320Y-67113183D01*
X66495210Y-66972219D01*
X66495209Y-66972218D01*
X66402601Y-66922101D01*
X66293374Y-66862991D01*
X66293372Y-66862990D01*
X66293371Y-66862989D01*
X66076317Y-66788475D01*
X66076310Y-66788473D01*
X65979432Y-66772307D01*
X65849948Y-66750700D01*
X65620452Y-66750700D01*
X65507167Y-66769603D01*
X65394089Y-66788473D01*
X65394082Y-66788475D01*
X65177028Y-66862989D01*
X65177026Y-66862991D01*
X64975190Y-66972218D01*
X64975189Y-66972219D01*
X64794079Y-67113183D01*
X64638652Y-67282022D01*
X64513130Y-67474149D01*
X64420944Y-67684311D01*
X64420941Y-67684318D01*
X64364607Y-67906780D01*
X64345654Y-68135500D01*
X63906400Y-68135500D01*
X63906400Y-63055500D01*
X64345654Y-63055500D01*
X64364607Y-63284219D01*
X64420941Y-63506681D01*
X64420944Y-63506688D01*
X64513130Y-63716850D01*
X64638652Y-63908977D01*
X64794079Y-64077816D01*
X64794084Y-64077820D01*
X64794086Y-64077822D01*
X64975190Y-64218781D01*
X65177026Y-64328009D01*
X65177027Y-64328009D01*
X65177028Y-64328010D01*
X65290991Y-64367133D01*
X65394087Y-64402526D01*
X65620452Y-64440300D01*
X65620456Y-64440300D01*
X65849944Y-64440300D01*
X65849948Y-64440300D01*
X66076313Y-64402526D01*
X66293374Y-64328009D01*
X66495210Y-64218781D01*
X66676314Y-64077822D01*
X66831747Y-63908977D01*
X66957269Y-63716851D01*
X67049457Y-63506685D01*
X67105794Y-63284212D01*
X67124746Y-63055500D01*
X76232854Y-63055500D01*
X76251807Y-63284219D01*
X76308141Y-63506681D01*
X76308144Y-63506688D01*
X76400330Y-63716850D01*
X76525852Y-63908977D01*
X76681279Y-64077816D01*
X76681284Y-64077820D01*
X76681286Y-64077822D01*
X76862390Y-64218781D01*
X77064226Y-64328009D01*
X77064227Y-64328009D01*
X77064228Y-64328010D01*
X77178191Y-64367133D01*
X77281287Y-64402526D01*
X77507652Y-64440300D01*
X77507656Y-64440300D01*
X77737144Y-64440300D01*
X77737148Y-64440300D01*
X77963513Y-64402526D01*
X78180574Y-64328009D01*
X78382410Y-64218781D01*
X78563514Y-64077822D01*
X78718947Y-63908977D01*
X78844469Y-63716851D01*
X78936657Y-63506685D01*
X78992994Y-63284212D01*
X79011946Y-63055500D01*
X87713654Y-63055500D01*
X87732607Y-63284219D01*
X87788941Y-63506681D01*
X87788944Y-63506688D01*
X87881130Y-63716850D01*
X88006652Y-63908977D01*
X88162079Y-64077816D01*
X88162084Y-64077820D01*
X88162086Y-64077822D01*
X88343190Y-64218781D01*
X88545026Y-64328009D01*
X88545027Y-64328009D01*
X88545028Y-64328010D01*
X88658991Y-64367133D01*
X88762087Y-64402526D01*
X88988452Y-64440300D01*
X88988456Y-64440300D01*
X89217944Y-64440300D01*
X89217948Y-64440300D01*
X89444313Y-64402526D01*
X89661374Y-64328009D01*
X89863210Y-64218781D01*
X90044314Y-64077822D01*
X90199747Y-63908977D01*
X90325269Y-63716851D01*
X90417457Y-63506685D01*
X90473794Y-63284212D01*
X90492746Y-63055500D01*
X98737254Y-63055500D01*
X98756207Y-63284219D01*
X98812541Y-63506681D01*
X98812544Y-63506688D01*
X98904730Y-63716850D01*
X99030252Y-63908977D01*
X99185679Y-64077816D01*
X99185684Y-64077820D01*
X99185686Y-64077822D01*
X99366790Y-64218781D01*
X99568626Y-64328009D01*
X99568627Y-64328009D01*
X99568628Y-64328010D01*
X99682591Y-64367133D01*
X99785687Y-64402526D01*
X100012052Y-64440300D01*
X100012056Y-64440300D01*
X100241544Y-64440300D01*
X100241548Y-64440300D01*
X100467913Y-64402526D01*
X100684974Y-64328009D01*
X100886810Y-64218781D01*
X101067914Y-64077822D01*
X101223347Y-63908977D01*
X101348869Y-63716851D01*
X101441057Y-63506685D01*
X101497394Y-63284212D01*
X101516346Y-63055500D01*
X109811654Y-63055500D01*
X109830607Y-63284219D01*
X109886941Y-63506681D01*
X109886944Y-63506688D01*
X109979130Y-63716850D01*
X110104652Y-63908977D01*
X110260079Y-64077816D01*
X110260084Y-64077820D01*
X110260086Y-64077822D01*
X110441190Y-64218781D01*
X110643026Y-64328009D01*
X110643027Y-64328009D01*
X110643028Y-64328010D01*
X110756991Y-64367133D01*
X110860087Y-64402526D01*
X111086452Y-64440300D01*
X111086456Y-64440300D01*
X111315944Y-64440300D01*
X111315948Y-64440300D01*
X111542313Y-64402526D01*
X111759374Y-64328009D01*
X111961210Y-64218781D01*
X112142314Y-64077822D01*
X112297747Y-63908977D01*
X112423269Y-63716851D01*
X112515457Y-63506685D01*
X112571794Y-63284212D01*
X112590746Y-63055500D01*
X119717654Y-63055500D01*
X119736607Y-63284219D01*
X119792941Y-63506681D01*
X119792944Y-63506688D01*
X119885130Y-63716850D01*
X120010652Y-63908977D01*
X120166079Y-64077816D01*
X120166084Y-64077820D01*
X120166086Y-64077822D01*
X120347190Y-64218781D01*
X120549026Y-64328009D01*
X120549027Y-64328009D01*
X120549028Y-64328010D01*
X120662991Y-64367133D01*
X120766087Y-64402526D01*
X120992452Y-64440300D01*
X120992456Y-64440300D01*
X121221944Y-64440300D01*
X121221948Y-64440300D01*
X121448313Y-64402526D01*
X121665374Y-64328009D01*
X121867210Y-64218781D01*
X122048314Y-64077822D01*
X122203747Y-63908977D01*
X122329269Y-63716851D01*
X122421457Y-63506685D01*
X122477794Y-63284212D01*
X122496746Y-63055500D01*
X129623654Y-63055500D01*
X129642607Y-63284219D01*
X129698941Y-63506681D01*
X129698944Y-63506688D01*
X129791130Y-63716850D01*
X129916652Y-63908977D01*
X130072079Y-64077816D01*
X130072084Y-64077820D01*
X130072086Y-64077822D01*
X130253190Y-64218781D01*
X130455026Y-64328009D01*
X130455027Y-64328009D01*
X130455028Y-64328010D01*
X130568991Y-64367133D01*
X130672087Y-64402526D01*
X130898452Y-64440300D01*
X130898456Y-64440300D01*
X131127944Y-64440300D01*
X131127948Y-64440300D01*
X131354313Y-64402526D01*
X131571374Y-64328009D01*
X131773210Y-64218781D01*
X131954314Y-64077822D01*
X132109747Y-63908977D01*
X132235269Y-63716851D01*
X132327457Y-63506685D01*
X132383794Y-63284212D01*
X132402746Y-63055500D01*
X140698054Y-63055500D01*
X140717007Y-63284219D01*
X140773341Y-63506681D01*
X140773344Y-63506688D01*
X140865530Y-63716850D01*
X140991052Y-63908977D01*
X141146479Y-64077816D01*
X141146484Y-64077820D01*
X141146486Y-64077822D01*
X141327590Y-64218781D01*
X141529426Y-64328009D01*
X141529427Y-64328009D01*
X141529428Y-64328010D01*
X141643391Y-64367133D01*
X141746487Y-64402526D01*
X141972852Y-64440300D01*
X141972856Y-64440300D01*
X142202344Y-64440300D01*
X142202348Y-64440300D01*
X142428713Y-64402526D01*
X142645774Y-64328009D01*
X142847610Y-64218781D01*
X143028714Y-64077822D01*
X143184147Y-63908977D01*
X143309669Y-63716851D01*
X143401857Y-63506685D01*
X143458194Y-63284212D01*
X143477146Y-63055500D01*
X143458194Y-62826788D01*
X143401857Y-62604315D01*
X143309669Y-62394149D01*
X143184147Y-62202022D01*
X143028720Y-62033183D01*
X142847610Y-61892219D01*
X142847609Y-61892218D01*
X142755001Y-61842101D01*
X142645774Y-61782991D01*
X142645772Y-61782990D01*
X142645771Y-61782989D01*
X142428717Y-61708475D01*
X142428710Y-61708473D01*
X142331832Y-61692307D01*
X142202348Y-61670700D01*
X141972852Y-61670700D01*
X141859567Y-61689603D01*
X141746489Y-61708473D01*
X141746482Y-61708475D01*
X141529428Y-61782989D01*
X141529426Y-61782991D01*
X141327590Y-61892218D01*
X141327589Y-61892219D01*
X141146479Y-62033183D01*
X140991052Y-62202022D01*
X140865530Y-62394149D01*
X140773344Y-62604311D01*
X140773341Y-62604318D01*
X140717007Y-62826780D01*
X140698054Y-63055500D01*
X132402746Y-63055500D01*
X132383794Y-62826788D01*
X132327457Y-62604315D01*
X132235269Y-62394149D01*
X132109747Y-62202022D01*
X131954320Y-62033183D01*
X131773210Y-61892219D01*
X131773209Y-61892218D01*
X131680601Y-61842101D01*
X131571374Y-61782991D01*
X131571372Y-61782990D01*
X131571371Y-61782989D01*
X131354317Y-61708475D01*
X131354310Y-61708473D01*
X131257432Y-61692307D01*
X131127948Y-61670700D01*
X130898452Y-61670700D01*
X130785167Y-61689603D01*
X130672089Y-61708473D01*
X130672082Y-61708475D01*
X130455028Y-61782989D01*
X130455026Y-61782991D01*
X130253190Y-61892218D01*
X130253189Y-61892219D01*
X130072079Y-62033183D01*
X129916652Y-62202022D01*
X129791130Y-62394149D01*
X129698944Y-62604311D01*
X129698941Y-62604318D01*
X129642607Y-62826780D01*
X129623654Y-63055500D01*
X122496746Y-63055500D01*
X122477794Y-62826788D01*
X122421457Y-62604315D01*
X122329269Y-62394149D01*
X122203747Y-62202022D01*
X122048320Y-62033183D01*
X121867210Y-61892219D01*
X121867209Y-61892218D01*
X121774601Y-61842101D01*
X121665374Y-61782991D01*
X121665372Y-61782990D01*
X121665371Y-61782989D01*
X121448317Y-61708475D01*
X121448310Y-61708473D01*
X121351432Y-61692307D01*
X121221948Y-61670700D01*
X120992452Y-61670700D01*
X120879167Y-61689603D01*
X120766089Y-61708473D01*
X120766082Y-61708475D01*
X120549028Y-61782989D01*
X120549026Y-61782991D01*
X120347190Y-61892218D01*
X120347189Y-61892219D01*
X120166079Y-62033183D01*
X120010652Y-62202022D01*
X119885130Y-62394149D01*
X119792944Y-62604311D01*
X119792941Y-62604318D01*
X119736607Y-62826780D01*
X119717654Y-63055500D01*
X112590746Y-63055500D01*
X112571794Y-62826788D01*
X112515457Y-62604315D01*
X112423269Y-62394149D01*
X112297747Y-62202022D01*
X112142320Y-62033183D01*
X111961210Y-61892219D01*
X111961209Y-61892218D01*
X111868601Y-61842101D01*
X111759374Y-61782991D01*
X111759372Y-61782990D01*
X111759371Y-61782989D01*
X111542317Y-61708475D01*
X111542310Y-61708473D01*
X111445432Y-61692307D01*
X111315948Y-61670700D01*
X111086452Y-61670700D01*
X110973167Y-61689603D01*
X110860089Y-61708473D01*
X110860082Y-61708475D01*
X110643028Y-61782989D01*
X110643026Y-61782991D01*
X110441190Y-61892218D01*
X110441189Y-61892219D01*
X110260079Y-62033183D01*
X110104652Y-62202022D01*
X109979130Y-62394149D01*
X109886944Y-62604311D01*
X109886941Y-62604318D01*
X109830607Y-62826780D01*
X109811654Y-63055500D01*
X101516346Y-63055500D01*
X101497394Y-62826788D01*
X101441057Y-62604315D01*
X101348869Y-62394149D01*
X101223347Y-62202022D01*
X101067920Y-62033183D01*
X100886810Y-61892219D01*
X100886809Y-61892218D01*
X100794201Y-61842101D01*
X100684974Y-61782991D01*
X100684972Y-61782990D01*
X100684971Y-61782989D01*
X100467917Y-61708475D01*
X100467910Y-61708473D01*
X100371032Y-61692307D01*
X100241548Y-61670700D01*
X100012052Y-61670700D01*
X99898767Y-61689603D01*
X99785689Y-61708473D01*
X99785682Y-61708475D01*
X99568628Y-61782989D01*
X99568626Y-61782991D01*
X99366790Y-61892218D01*
X99366789Y-61892219D01*
X99185679Y-62033183D01*
X99030252Y-62202022D01*
X98904730Y-62394149D01*
X98812544Y-62604311D01*
X98812541Y-62604318D01*
X98756207Y-62826780D01*
X98737254Y-63055500D01*
X90492746Y-63055500D01*
X90473794Y-62826788D01*
X90417457Y-62604315D01*
X90325269Y-62394149D01*
X90199747Y-62202022D01*
X90044320Y-62033183D01*
X89863210Y-61892219D01*
X89863209Y-61892218D01*
X89770601Y-61842101D01*
X89661374Y-61782991D01*
X89661372Y-61782990D01*
X89661371Y-61782989D01*
X89444317Y-61708475D01*
X89444310Y-61708473D01*
X89347432Y-61692307D01*
X89217948Y-61670700D01*
X88988452Y-61670700D01*
X88875167Y-61689603D01*
X88762089Y-61708473D01*
X88762082Y-61708475D01*
X88545028Y-61782989D01*
X88545026Y-61782991D01*
X88343190Y-61892218D01*
X88343189Y-61892219D01*
X88162079Y-62033183D01*
X88006652Y-62202022D01*
X87881130Y-62394149D01*
X87788944Y-62604311D01*
X87788941Y-62604318D01*
X87732607Y-62826780D01*
X87713654Y-63055500D01*
X79011946Y-63055500D01*
X78992994Y-62826788D01*
X78936657Y-62604315D01*
X78844469Y-62394149D01*
X78718947Y-62202022D01*
X78563520Y-62033183D01*
X78382410Y-61892219D01*
X78382409Y-61892218D01*
X78289801Y-61842101D01*
X78180574Y-61782991D01*
X78180572Y-61782990D01*
X78180571Y-61782989D01*
X77963517Y-61708475D01*
X77963510Y-61708473D01*
X77866632Y-61692307D01*
X77737148Y-61670700D01*
X77507652Y-61670700D01*
X77394367Y-61689603D01*
X77281289Y-61708473D01*
X77281282Y-61708475D01*
X77064228Y-61782989D01*
X77064226Y-61782991D01*
X76862390Y-61892218D01*
X76862389Y-61892219D01*
X76681279Y-62033183D01*
X76525852Y-62202022D01*
X76400330Y-62394149D01*
X76308144Y-62604311D01*
X76308141Y-62604318D01*
X76251807Y-62826780D01*
X76232854Y-63055500D01*
X67124746Y-63055500D01*
X67105794Y-62826788D01*
X67049457Y-62604315D01*
X66957269Y-62394149D01*
X66831747Y-62202022D01*
X66676320Y-62033183D01*
X66495210Y-61892219D01*
X66495209Y-61892218D01*
X66402601Y-61842101D01*
X66293374Y-61782991D01*
X66293372Y-61782990D01*
X66293371Y-61782989D01*
X66076317Y-61708475D01*
X66076310Y-61708473D01*
X65979432Y-61692307D01*
X65849948Y-61670700D01*
X65620452Y-61670700D01*
X65507167Y-61689603D01*
X65394089Y-61708473D01*
X65394082Y-61708475D01*
X65177028Y-61782989D01*
X65177026Y-61782991D01*
X64975190Y-61892218D01*
X64975189Y-61892219D01*
X64794079Y-62033183D01*
X64638652Y-62202022D01*
X64513130Y-62394149D01*
X64420944Y-62604311D01*
X64420941Y-62604318D01*
X64364607Y-62826780D01*
X64345654Y-63055500D01*
X63906400Y-63055500D01*
X63906400Y-51237509D01*
X65561100Y-51237509D01*
X65561100Y-51480090D01*
X65592760Y-51720582D01*
X65655544Y-51954895D01*
X65655545Y-51954897D01*
X65655546Y-51954900D01*
X65748376Y-52179012D01*
X65748377Y-52179013D01*
X65748382Y-52179024D01*
X65869661Y-52389085D01*
X65869663Y-52389088D01*
X65869664Y-52389089D01*
X66017335Y-52581538D01*
X66017339Y-52581542D01*
X66017344Y-52581548D01*
X66188851Y-52753055D01*
X66188856Y-52753059D01*
X66188862Y-52753065D01*
X66381311Y-52900736D01*
X66381314Y-52900738D01*
X66591375Y-53022017D01*
X66591379Y-53022018D01*
X66591388Y-53022024D01*
X66815500Y-53114854D01*
X67049811Y-53177638D01*
X67049815Y-53177638D01*
X67049817Y-53177639D01*
X67111802Y-53185799D01*
X67290312Y-53209300D01*
X67290319Y-53209300D01*
X67532881Y-53209300D01*
X67532888Y-53209300D01*
X67750237Y-53180685D01*
X67773382Y-53177639D01*
X67773382Y-53177638D01*
X67773389Y-53177638D01*
X68007700Y-53114854D01*
X68231812Y-53022024D01*
X68441889Y-52900736D01*
X68634338Y-52753065D01*
X68805865Y-52581538D01*
X68953536Y-52389089D01*
X69074824Y-52179012D01*
X69167654Y-51954900D01*
X69230438Y-51720589D01*
X69262100Y-51480088D01*
X69262100Y-51237512D01*
X69238881Y-51061146D01*
X86948200Y-51061146D01*
X86948200Y-54262244D01*
X86958812Y-54366125D01*
X87014585Y-54534438D01*
X87107670Y-54685352D01*
X87107675Y-54685358D01*
X87233041Y-54810724D01*
X87233047Y-54810729D01*
X87233048Y-54810730D01*
X87383962Y-54903815D01*
X87552274Y-54959587D01*
X87656155Y-54970200D01*
X89057244Y-54970199D01*
X89161126Y-54959587D01*
X89329438Y-54903815D01*
X89480352Y-54810730D01*
X89605730Y-54685352D01*
X89698815Y-54534438D01*
X89754587Y-54366126D01*
X89765200Y-54262245D01*
X89765199Y-51650849D01*
X90448200Y-51650849D01*
X90448200Y-53672551D01*
X90482864Y-53891410D01*
X90482883Y-53891529D01*
X90551329Y-54102183D01*
X90551392Y-54102376D01*
X90652043Y-54299915D01*
X90652045Y-54299918D01*
X90782358Y-54479278D01*
X90939121Y-54636041D01*
X90939124Y-54636043D01*
X91118485Y-54766357D01*
X91316024Y-54867008D01*
X91526876Y-54935518D01*
X91745849Y-54970200D01*
X91745852Y-54970200D01*
X91967548Y-54970200D01*
X91967551Y-54970200D01*
X92186524Y-54935518D01*
X92397376Y-54867008D01*
X92594915Y-54766357D01*
X92774276Y-54636043D01*
X92931043Y-54479276D01*
X93061357Y-54299915D01*
X93162008Y-54102376D01*
X93230518Y-53891524D01*
X93265200Y-53672551D01*
X93265200Y-51650849D01*
X93948200Y-51650849D01*
X93948200Y-53672551D01*
X93982864Y-53891410D01*
X93982883Y-53891529D01*
X94051329Y-54102183D01*
X94051392Y-54102376D01*
X94152043Y-54299915D01*
X94152045Y-54299918D01*
X94282358Y-54479278D01*
X94439121Y-54636041D01*
X94439124Y-54636043D01*
X94618485Y-54766357D01*
X94816024Y-54867008D01*
X95026876Y-54935518D01*
X95245849Y-54970200D01*
X95245852Y-54970200D01*
X95467548Y-54970200D01*
X95467551Y-54970200D01*
X95686524Y-54935518D01*
X95897376Y-54867008D01*
X96094915Y-54766357D01*
X96274276Y-54636043D01*
X96431043Y-54479276D01*
X96561357Y-54299915D01*
X96662008Y-54102376D01*
X96730518Y-53891524D01*
X96765200Y-53672551D01*
X96765200Y-51650849D01*
X97448200Y-51650849D01*
X97448200Y-53672551D01*
X97482864Y-53891410D01*
X97482883Y-53891529D01*
X97551329Y-54102183D01*
X97551392Y-54102376D01*
X97652043Y-54299915D01*
X97652045Y-54299918D01*
X97782358Y-54479278D01*
X97939121Y-54636041D01*
X97939124Y-54636043D01*
X98118485Y-54766357D01*
X98316024Y-54867008D01*
X98526876Y-54935518D01*
X98745849Y-54970200D01*
X98745852Y-54970200D01*
X98967548Y-54970200D01*
X98967551Y-54970200D01*
X99186524Y-54935518D01*
X99397376Y-54867008D01*
X99594915Y-54766357D01*
X99774276Y-54636043D01*
X99931043Y-54479276D01*
X100061357Y-54299915D01*
X100162008Y-54102376D01*
X100230518Y-53891524D01*
X100265200Y-53672551D01*
X100265200Y-51650849D01*
X100948200Y-51650849D01*
X100948200Y-53672551D01*
X100982864Y-53891410D01*
X100982883Y-53891529D01*
X101051329Y-54102183D01*
X101051392Y-54102376D01*
X101152043Y-54299915D01*
X101152045Y-54299918D01*
X101282358Y-54479278D01*
X101439121Y-54636041D01*
X101439124Y-54636043D01*
X101618485Y-54766357D01*
X101816024Y-54867008D01*
X102026876Y-54935518D01*
X102245849Y-54970200D01*
X102245852Y-54970200D01*
X102467548Y-54970200D01*
X102467551Y-54970200D01*
X102686524Y-54935518D01*
X102897376Y-54867008D01*
X103094915Y-54766357D01*
X103274276Y-54636043D01*
X103431043Y-54479276D01*
X103561357Y-54299915D01*
X103662008Y-54102376D01*
X103730518Y-53891524D01*
X103765200Y-53672551D01*
X103765200Y-51650849D01*
X104448200Y-51650849D01*
X104448200Y-53672551D01*
X104482864Y-53891410D01*
X104482883Y-53891529D01*
X104551329Y-54102183D01*
X104551392Y-54102376D01*
X104652043Y-54299915D01*
X104652045Y-54299918D01*
X104782358Y-54479278D01*
X104939121Y-54636041D01*
X104939124Y-54636043D01*
X105118485Y-54766357D01*
X105316024Y-54867008D01*
X105526876Y-54935518D01*
X105745849Y-54970200D01*
X105745852Y-54970200D01*
X105967548Y-54970200D01*
X105967551Y-54970200D01*
X106186524Y-54935518D01*
X106397376Y-54867008D01*
X106594915Y-54766357D01*
X106774276Y-54636043D01*
X106931043Y-54479276D01*
X107061357Y-54299915D01*
X107162008Y-54102376D01*
X107230518Y-53891524D01*
X107265200Y-53672551D01*
X107265200Y-51650849D01*
X107948200Y-51650849D01*
X107948200Y-53672551D01*
X107982864Y-53891410D01*
X107982883Y-53891529D01*
X108051329Y-54102183D01*
X108051392Y-54102376D01*
X108152043Y-54299915D01*
X108152045Y-54299918D01*
X108282358Y-54479278D01*
X108439121Y-54636041D01*
X108439124Y-54636043D01*
X108618485Y-54766357D01*
X108816024Y-54867008D01*
X109026876Y-54935518D01*
X109245849Y-54970200D01*
X109245852Y-54970200D01*
X109467548Y-54970200D01*
X109467551Y-54970200D01*
X109686524Y-54935518D01*
X109897376Y-54867008D01*
X110094915Y-54766357D01*
X110274276Y-54636043D01*
X110431043Y-54479276D01*
X110561357Y-54299915D01*
X110662008Y-54102376D01*
X110730518Y-53891524D01*
X110765200Y-53672551D01*
X110765200Y-51650849D01*
X111448200Y-51650849D01*
X111448200Y-53672551D01*
X111482864Y-53891410D01*
X111482883Y-53891529D01*
X111551329Y-54102183D01*
X111551392Y-54102376D01*
X111652043Y-54299915D01*
X111652045Y-54299918D01*
X111782358Y-54479278D01*
X111939121Y-54636041D01*
X111939124Y-54636043D01*
X112118485Y-54766357D01*
X112316024Y-54867008D01*
X112526876Y-54935518D01*
X112745849Y-54970200D01*
X112745852Y-54970200D01*
X112967548Y-54970200D01*
X112967551Y-54970200D01*
X113186524Y-54935518D01*
X113397376Y-54867008D01*
X113594915Y-54766357D01*
X113774276Y-54636043D01*
X113931043Y-54479276D01*
X114061357Y-54299915D01*
X114162008Y-54102376D01*
X114230518Y-53891524D01*
X114265200Y-53672551D01*
X114265200Y-51650849D01*
X114948200Y-51650849D01*
X114948200Y-53672551D01*
X114982864Y-53891410D01*
X114982883Y-53891529D01*
X115051329Y-54102183D01*
X115051392Y-54102376D01*
X115152043Y-54299915D01*
X115152045Y-54299918D01*
X115282358Y-54479278D01*
X115439121Y-54636041D01*
X115439124Y-54636043D01*
X115618485Y-54766357D01*
X115816024Y-54867008D01*
X116026876Y-54935518D01*
X116245849Y-54970200D01*
X116245852Y-54970200D01*
X116467548Y-54970200D01*
X116467551Y-54970200D01*
X116686524Y-54935518D01*
X116897376Y-54867008D01*
X117094915Y-54766357D01*
X117274276Y-54636043D01*
X117431043Y-54479276D01*
X117561357Y-54299915D01*
X117662008Y-54102376D01*
X117730518Y-53891524D01*
X117765200Y-53672551D01*
X117765200Y-51650891D01*
X118448700Y-51650891D01*
X118448700Y-52407700D01*
X119310527Y-52407700D01*
X119297589Y-52430109D01*
X119256700Y-52582709D01*
X119256700Y-52740691D01*
X119297589Y-52893291D01*
X119310527Y-52915700D01*
X118448700Y-52915700D01*
X118448700Y-53672508D01*
X118483370Y-53891410D01*
X118551855Y-54102183D01*
X118551856Y-54102185D01*
X118652472Y-54299656D01*
X118782739Y-54478953D01*
X118939446Y-54635660D01*
X119118743Y-54765927D01*
X119316214Y-54866543D01*
X119316216Y-54866544D01*
X119526989Y-54935029D01*
X119602700Y-54947020D01*
X119602700Y-53207873D01*
X119625109Y-53220811D01*
X119777709Y-53261700D01*
X119935691Y-53261700D01*
X120088291Y-53220811D01*
X120110700Y-53207873D01*
X120110700Y-54947020D01*
X120186409Y-54935029D01*
X120186411Y-54935029D01*
X120397183Y-54866544D01*
X120397185Y-54866543D01*
X120594656Y-54765927D01*
X120773953Y-54635660D01*
X120930660Y-54478953D01*
X121060927Y-54299656D01*
X121161543Y-54102185D01*
X121161544Y-54102183D01*
X121230029Y-53891410D01*
X121264700Y-53672508D01*
X121264700Y-52915700D01*
X120402873Y-52915700D01*
X120415811Y-52893291D01*
X120456700Y-52740691D01*
X120456700Y-52582709D01*
X120415811Y-52430109D01*
X120402873Y-52407700D01*
X121264700Y-52407700D01*
X121264700Y-51650891D01*
X121230029Y-51431989D01*
X121166838Y-51237509D01*
X138713100Y-51237509D01*
X138713100Y-51480090D01*
X138744760Y-51720582D01*
X138807544Y-51954895D01*
X138807545Y-51954897D01*
X138807546Y-51954900D01*
X138900376Y-52179012D01*
X138900377Y-52179013D01*
X138900382Y-52179024D01*
X139021661Y-52389085D01*
X139021663Y-52389088D01*
X139021664Y-52389089D01*
X139169335Y-52581538D01*
X139169339Y-52581542D01*
X139169344Y-52581548D01*
X139340851Y-52753055D01*
X139340856Y-52753059D01*
X139340862Y-52753065D01*
X139533311Y-52900736D01*
X139533314Y-52900738D01*
X139743375Y-53022017D01*
X139743379Y-53022018D01*
X139743388Y-53022024D01*
X139967500Y-53114854D01*
X140201811Y-53177638D01*
X140201815Y-53177638D01*
X140201817Y-53177639D01*
X140263802Y-53185799D01*
X140442312Y-53209300D01*
X140442319Y-53209300D01*
X140684881Y-53209300D01*
X140684888Y-53209300D01*
X140902237Y-53180685D01*
X140925382Y-53177639D01*
X140925382Y-53177638D01*
X140925389Y-53177638D01*
X141159700Y-53114854D01*
X141383812Y-53022024D01*
X141593889Y-52900736D01*
X141786338Y-52753065D01*
X141957865Y-52581538D01*
X142105536Y-52389089D01*
X142226824Y-52179012D01*
X142319654Y-51954900D01*
X142382438Y-51720589D01*
X142414100Y-51480088D01*
X142414100Y-51237512D01*
X142382438Y-50997011D01*
X142319654Y-50762700D01*
X142226824Y-50538588D01*
X142226818Y-50538579D01*
X142226817Y-50538575D01*
X142105538Y-50328514D01*
X142105536Y-50328511D01*
X141957865Y-50136062D01*
X141957859Y-50136056D01*
X141957855Y-50136051D01*
X141786348Y-49964544D01*
X141786342Y-49964539D01*
X141786338Y-49964535D01*
X141593889Y-49816864D01*
X141593888Y-49816863D01*
X141593885Y-49816861D01*
X141383824Y-49695582D01*
X141383816Y-49695578D01*
X141383812Y-49695576D01*
X141159700Y-49602746D01*
X141159697Y-49602745D01*
X141159695Y-49602744D01*
X140925382Y-49539960D01*
X140684890Y-49508300D01*
X140684888Y-49508300D01*
X140442312Y-49508300D01*
X140442309Y-49508300D01*
X140201817Y-49539960D01*
X139967504Y-49602744D01*
X139967500Y-49602746D01*
X139743386Y-49695577D01*
X139743375Y-49695582D01*
X139533314Y-49816861D01*
X139340862Y-49964535D01*
X139340851Y-49964544D01*
X139169344Y-50136051D01*
X139169335Y-50136062D01*
X139021661Y-50328514D01*
X138900382Y-50538575D01*
X138900377Y-50538586D01*
X138900376Y-50538588D01*
X138838754Y-50687357D01*
X138807546Y-50762700D01*
X138807544Y-50762704D01*
X138744760Y-50997017D01*
X138713100Y-51237509D01*
X121166838Y-51237509D01*
X121161544Y-51221216D01*
X121161543Y-51221214D01*
X121060927Y-51023743D01*
X120930660Y-50844446D01*
X120773953Y-50687739D01*
X120594656Y-50557472D01*
X120397185Y-50456856D01*
X120397183Y-50456855D01*
X120186409Y-50388369D01*
X120110700Y-50376378D01*
X120110700Y-52115526D01*
X120088291Y-52102589D01*
X119935691Y-52061700D01*
X119777709Y-52061700D01*
X119625109Y-52102589D01*
X119602700Y-52115526D01*
X119602700Y-50376378D01*
X119526990Y-50388369D01*
X119316216Y-50456855D01*
X119316214Y-50456856D01*
X119118743Y-50557472D01*
X118939446Y-50687739D01*
X118782739Y-50844446D01*
X118652472Y-51023743D01*
X118551856Y-51221214D01*
X118551855Y-51221216D01*
X118483370Y-51431989D01*
X118448700Y-51650891D01*
X117765200Y-51650891D01*
X117765200Y-51650849D01*
X117730518Y-51431876D01*
X117662008Y-51221024D01*
X117561357Y-51023485D01*
X117431043Y-50844124D01*
X117431041Y-50844121D01*
X117274278Y-50687358D01*
X117094918Y-50557045D01*
X117094917Y-50557044D01*
X117094915Y-50557043D01*
X116897376Y-50456392D01*
X116897373Y-50456391D01*
X116897371Y-50456390D01*
X116686529Y-50387883D01*
X116686525Y-50387882D01*
X116686524Y-50387882D01*
X116467551Y-50353200D01*
X116245849Y-50353200D01*
X116026876Y-50387882D01*
X116026870Y-50387883D01*
X115816028Y-50456390D01*
X115816022Y-50456393D01*
X115618481Y-50557045D01*
X115439121Y-50687358D01*
X115282358Y-50844121D01*
X115152045Y-51023481D01*
X115051393Y-51221022D01*
X115051390Y-51221028D01*
X114982883Y-51431870D01*
X114982882Y-51431875D01*
X114982882Y-51431876D01*
X114948200Y-51650849D01*
X114265200Y-51650849D01*
X114230518Y-51431876D01*
X114162008Y-51221024D01*
X114061357Y-51023485D01*
X113931043Y-50844124D01*
X113931041Y-50844121D01*
X113774278Y-50687358D01*
X113594918Y-50557045D01*
X113594917Y-50557044D01*
X113594915Y-50557043D01*
X113397376Y-50456392D01*
X113397373Y-50456391D01*
X113397371Y-50456390D01*
X113186529Y-50387883D01*
X113186525Y-50387882D01*
X113186524Y-50387882D01*
X112967551Y-50353200D01*
X112745849Y-50353200D01*
X112526876Y-50387882D01*
X112526870Y-50387883D01*
X112316028Y-50456390D01*
X112316022Y-50456393D01*
X112118481Y-50557045D01*
X111939121Y-50687358D01*
X111782358Y-50844121D01*
X111652045Y-51023481D01*
X111551393Y-51221022D01*
X111551390Y-51221028D01*
X111482883Y-51431870D01*
X111482882Y-51431875D01*
X111482882Y-51431876D01*
X111448200Y-51650849D01*
X110765200Y-51650849D01*
X110730518Y-51431876D01*
X110662008Y-51221024D01*
X110561357Y-51023485D01*
X110431043Y-50844124D01*
X110431041Y-50844121D01*
X110274278Y-50687358D01*
X110094918Y-50557045D01*
X110094917Y-50557044D01*
X110094915Y-50557043D01*
X109897376Y-50456392D01*
X109897373Y-50456391D01*
X109897371Y-50456390D01*
X109686529Y-50387883D01*
X109686525Y-50387882D01*
X109686524Y-50387882D01*
X109467551Y-50353200D01*
X109245849Y-50353200D01*
X109026876Y-50387882D01*
X109026870Y-50387883D01*
X108816028Y-50456390D01*
X108816022Y-50456393D01*
X108618481Y-50557045D01*
X108439121Y-50687358D01*
X108282358Y-50844121D01*
X108152045Y-51023481D01*
X108051393Y-51221022D01*
X108051390Y-51221028D01*
X107982883Y-51431870D01*
X107982882Y-51431875D01*
X107982882Y-51431876D01*
X107948200Y-51650849D01*
X107265200Y-51650849D01*
X107230518Y-51431876D01*
X107162008Y-51221024D01*
X107061357Y-51023485D01*
X106931043Y-50844124D01*
X106931041Y-50844121D01*
X106774278Y-50687358D01*
X106594918Y-50557045D01*
X106594917Y-50557044D01*
X106594915Y-50557043D01*
X106397376Y-50456392D01*
X106397373Y-50456391D01*
X106397371Y-50456390D01*
X106186529Y-50387883D01*
X106186525Y-50387882D01*
X106186524Y-50387882D01*
X105967551Y-50353200D01*
X105745849Y-50353200D01*
X105526876Y-50387882D01*
X105526870Y-50387883D01*
X105316028Y-50456390D01*
X105316022Y-50456393D01*
X105118481Y-50557045D01*
X104939121Y-50687358D01*
X104782358Y-50844121D01*
X104652045Y-51023481D01*
X104551393Y-51221022D01*
X104551390Y-51221028D01*
X104482883Y-51431870D01*
X104482882Y-51431875D01*
X104482882Y-51431876D01*
X104448200Y-51650849D01*
X103765200Y-51650849D01*
X103730518Y-51431876D01*
X103662008Y-51221024D01*
X103561357Y-51023485D01*
X103431043Y-50844124D01*
X103431041Y-50844121D01*
X103274278Y-50687358D01*
X103094918Y-50557045D01*
X103094917Y-50557044D01*
X103094915Y-50557043D01*
X102897376Y-50456392D01*
X102897373Y-50456391D01*
X102897371Y-50456390D01*
X102686529Y-50387883D01*
X102686525Y-50387882D01*
X102686524Y-50387882D01*
X102467551Y-50353200D01*
X102245849Y-50353200D01*
X102026876Y-50387882D01*
X102026870Y-50387883D01*
X101816028Y-50456390D01*
X101816022Y-50456393D01*
X101618481Y-50557045D01*
X101439121Y-50687358D01*
X101282358Y-50844121D01*
X101152045Y-51023481D01*
X101051393Y-51221022D01*
X101051390Y-51221028D01*
X100982883Y-51431870D01*
X100982882Y-51431875D01*
X100982882Y-51431876D01*
X100948200Y-51650849D01*
X100265200Y-51650849D01*
X100230518Y-51431876D01*
X100162008Y-51221024D01*
X100061357Y-51023485D01*
X99931043Y-50844124D01*
X99931041Y-50844121D01*
X99774278Y-50687358D01*
X99594918Y-50557045D01*
X99594917Y-50557044D01*
X99594915Y-50557043D01*
X99397376Y-50456392D01*
X99397373Y-50456391D01*
X99397371Y-50456390D01*
X99186529Y-50387883D01*
X99186525Y-50387882D01*
X99186524Y-50387882D01*
X98967551Y-50353200D01*
X98745849Y-50353200D01*
X98526876Y-50387882D01*
X98526870Y-50387883D01*
X98316028Y-50456390D01*
X98316022Y-50456393D01*
X98118481Y-50557045D01*
X97939121Y-50687358D01*
X97782358Y-50844121D01*
X97652045Y-51023481D01*
X97551393Y-51221022D01*
X97551390Y-51221028D01*
X97482883Y-51431870D01*
X97482882Y-51431875D01*
X97482882Y-51431876D01*
X97448200Y-51650849D01*
X96765200Y-51650849D01*
X96730518Y-51431876D01*
X96662008Y-51221024D01*
X96561357Y-51023485D01*
X96431043Y-50844124D01*
X96431041Y-50844121D01*
X96274278Y-50687358D01*
X96094918Y-50557045D01*
X96094917Y-50557044D01*
X96094915Y-50557043D01*
X95897376Y-50456392D01*
X95897373Y-50456391D01*
X95897371Y-50456390D01*
X95686529Y-50387883D01*
X95686525Y-50387882D01*
X95686524Y-50387882D01*
X95467551Y-50353200D01*
X95245849Y-50353200D01*
X95026876Y-50387882D01*
X95026870Y-50387883D01*
X94816028Y-50456390D01*
X94816022Y-50456393D01*
X94618481Y-50557045D01*
X94439121Y-50687358D01*
X94282358Y-50844121D01*
X94152045Y-51023481D01*
X94051393Y-51221022D01*
X94051390Y-51221028D01*
X93982883Y-51431870D01*
X93982882Y-51431875D01*
X93982882Y-51431876D01*
X93948200Y-51650849D01*
X93265200Y-51650849D01*
X93230518Y-51431876D01*
X93162008Y-51221024D01*
X93061357Y-51023485D01*
X92931043Y-50844124D01*
X92931041Y-50844121D01*
X92774278Y-50687358D01*
X92594918Y-50557045D01*
X92594917Y-50557044D01*
X92594915Y-50557043D01*
X92397376Y-50456392D01*
X92397373Y-50456391D01*
X92397371Y-50456390D01*
X92186529Y-50387883D01*
X92186525Y-50387882D01*
X92186524Y-50387882D01*
X91967551Y-50353200D01*
X91745849Y-50353200D01*
X91526876Y-50387882D01*
X91526870Y-50387883D01*
X91316028Y-50456390D01*
X91316022Y-50456393D01*
X91118481Y-50557045D01*
X90939121Y-50687358D01*
X90782358Y-50844121D01*
X90652045Y-51023481D01*
X90551393Y-51221022D01*
X90551390Y-51221028D01*
X90482883Y-51431870D01*
X90482882Y-51431875D01*
X90482882Y-51431876D01*
X90448200Y-51650849D01*
X89765199Y-51650849D01*
X89765199Y-51061156D01*
X89754587Y-50957274D01*
X89698815Y-50788962D01*
X89605730Y-50638048D01*
X89605729Y-50638047D01*
X89605724Y-50638041D01*
X89480358Y-50512675D01*
X89480352Y-50512670D01*
X89329438Y-50419585D01*
X89233763Y-50387882D01*
X89161127Y-50363813D01*
X89161120Y-50363812D01*
X89057253Y-50353200D01*
X87656155Y-50353200D01*
X87552274Y-50363812D01*
X87383961Y-50419585D01*
X87233047Y-50512670D01*
X87233041Y-50512675D01*
X87107675Y-50638041D01*
X87107670Y-50638047D01*
X87014585Y-50788962D01*
X86958813Y-50957272D01*
X86958812Y-50957279D01*
X86948200Y-51061146D01*
X69238881Y-51061146D01*
X69230438Y-50997011D01*
X69167654Y-50762700D01*
X69074824Y-50538588D01*
X69074818Y-50538579D01*
X69074817Y-50538575D01*
X68953538Y-50328514D01*
X68953536Y-50328511D01*
X68805865Y-50136062D01*
X68805859Y-50136056D01*
X68805855Y-50136051D01*
X68634348Y-49964544D01*
X68634342Y-49964539D01*
X68634338Y-49964535D01*
X68441889Y-49816864D01*
X68441888Y-49816863D01*
X68441885Y-49816861D01*
X68231824Y-49695582D01*
X68231816Y-49695578D01*
X68231812Y-49695576D01*
X68007700Y-49602746D01*
X68007697Y-49602745D01*
X68007695Y-49602744D01*
X67773382Y-49539960D01*
X67532890Y-49508300D01*
X67532888Y-49508300D01*
X67290312Y-49508300D01*
X67290309Y-49508300D01*
X67049817Y-49539960D01*
X66815504Y-49602744D01*
X66815500Y-49602746D01*
X66591386Y-49695577D01*
X66591375Y-49695582D01*
X66381314Y-49816861D01*
X66188862Y-49964535D01*
X66188851Y-49964544D01*
X66017344Y-50136051D01*
X66017335Y-50136062D01*
X65869661Y-50328514D01*
X65748382Y-50538575D01*
X65748377Y-50538586D01*
X65748376Y-50538588D01*
X65686754Y-50687357D01*
X65655546Y-50762700D01*
X65655544Y-50762704D01*
X65592760Y-50997017D01*
X65561100Y-51237509D01*
X63906400Y-51237509D01*
X63906400Y-50039390D01*
X63926402Y-49971269D01*
X63943305Y-49950295D01*
X64385300Y-49508300D01*
X66003062Y-47890537D01*
X66065372Y-47856514D01*
X66092229Y-47853634D01*
X141832259Y-47904365D01*
G37*
%TD.AperFunction*%
%TD*%
M02*
