%TF.GenerationSoftware,KiCad,Pcbnew,8.0.4*%
%TF.CreationDate,2024-07-23T21:16:43+01:00*%
%TF.ProjectId,8_Way_Relay_Board,385f5761-795f-4526-956c-61795f426f61,V1*%
%TF.SameCoordinates,Original*%
%TF.FileFunction,Copper,L4,Bot*%
%TF.FilePolarity,Positive*%
%FSLAX46Y46*%
G04 Gerber Fmt 4.6, Leading zero omitted, Abs format (unit mm)*
G04 Created by KiCad (PCBNEW 8.0.4) date 2024-07-23 21:16:43*
%MOMM*%
%LPD*%
G01*
G04 APERTURE LIST*
G04 Aperture macros list*
%AMRoundRect*
0 Rectangle with rounded corners*
0 $1 Rounding radius*
0 $2 $3 $4 $5 $6 $7 $8 $9 X,Y pos of 4 corners*
0 Add a 4 corners polygon primitive as box body*
4,1,4,$2,$3,$4,$5,$6,$7,$8,$9,$2,$3,0*
0 Add four circle primitives for the rounded corners*
1,1,$1+$1,$2,$3*
1,1,$1+$1,$4,$5*
1,1,$1+$1,$6,$7*
1,1,$1+$1,$8,$9*
0 Add four rect primitives between the rounded corners*
20,1,$1+$1,$2,$3,$4,$5,0*
20,1,$1+$1,$4,$5,$6,$7,0*
20,1,$1+$1,$6,$7,$8,$9,0*
20,1,$1+$1,$8,$9,$2,$3,0*%
G04 Aperture macros list end*
%TA.AperFunction,ComponentPad*%
%ADD10RoundRect,0.250000X-0.650000X-1.550000X0.650000X-1.550000X0.650000X1.550000X-0.650000X1.550000X0*%
%TD*%
%TA.AperFunction,ComponentPad*%
%ADD11O,1.800000X3.600000*%
%TD*%
%TA.AperFunction,ComponentPad*%
%ADD12R,1.752600X1.752600*%
%TD*%
%TA.AperFunction,ComponentPad*%
%ADD13C,1.752600*%
%TD*%
%TA.AperFunction,ViaPad*%
%ADD14C,0.800000*%
%TD*%
%TA.AperFunction,Conductor*%
%ADD15C,1.000000*%
%TD*%
G04 APERTURE END LIST*
D10*
%TO.P,J2,1,Pin_1*%
%TO.N,Out1*%
X88356700Y-52661700D03*
D11*
%TO.P,J2,2,Pin_2*%
%TO.N,Out2*%
X91856700Y-52661700D03*
%TO.P,J2,3,Pin_3*%
%TO.N,Out3*%
X95356700Y-52661700D03*
%TO.P,J2,4,Pin_4*%
%TO.N,Out4*%
X98856700Y-52661700D03*
%TO.P,J2,5,Pin_5*%
%TO.N,Out5*%
X102356700Y-52661700D03*
%TO.P,J2,6,Pin_6*%
%TO.N,Out6*%
X105856700Y-52661700D03*
%TO.P,J2,7,Pin_7*%
%TO.N,Out7*%
X109356700Y-52661700D03*
%TO.P,J2,8,Pin_8*%
%TO.N,Out8*%
X112856700Y-52661700D03*
%TO.P,J2,9,Pin_9*%
%TO.N,+24V*%
X116356700Y-52661700D03*
%TO.P,J2,10,Pin_10*%
%TO.N,GND*%
X119856700Y-52661700D03*
%TD*%
D12*
%TO.P,K7,1*%
%TO.N,GND*%
X131013200Y-80835500D03*
D13*
%TO.P,K7,2*%
%TO.N,Net-(K7-Pad2)*%
X131013200Y-78295500D03*
%TO.P,K7,3*%
%TO.N,Out7*%
X131013200Y-68135500D03*
%TO.P,K7,4*%
%TO.N,+24V*%
X131013200Y-63055500D03*
%TD*%
D12*
%TO.P,K8,1*%
%TO.N,GND*%
X142087600Y-80835500D03*
D13*
%TO.P,K8,2*%
%TO.N,Net-(K8-Pad2)*%
X142087600Y-78295500D03*
%TO.P,K8,3*%
%TO.N,Out8*%
X142087600Y-68135500D03*
%TO.P,K8,4*%
%TO.N,+24V*%
X142087600Y-63055500D03*
%TD*%
D12*
%TO.P,K2,1*%
%TO.N,GND*%
X77622400Y-80835500D03*
D13*
%TO.P,K2,2*%
%TO.N,Net-(K2-Pad2)*%
X77622400Y-78295500D03*
%TO.P,K2,3*%
%TO.N,Out2*%
X77622400Y-68135500D03*
%TO.P,K2,4*%
%TO.N,+24V*%
X77622400Y-63055500D03*
%TD*%
D12*
%TO.P,K6,1*%
%TO.N,GND*%
X121107200Y-80835500D03*
D13*
%TO.P,K6,2*%
%TO.N,Net-(K6-Pad2)*%
X121107200Y-78295500D03*
%TO.P,K6,3*%
%TO.N,Out6*%
X121107200Y-68135500D03*
%TO.P,K6,4*%
%TO.N,+24V*%
X121107200Y-63055500D03*
%TD*%
D10*
%TO.P,J1,1,Pin_1*%
%TO.N,In1*%
X88875200Y-91389200D03*
D11*
%TO.P,J1,2,Pin_2*%
%TO.N,In2*%
X92375200Y-91389200D03*
%TO.P,J1,3,Pin_3*%
%TO.N,In3*%
X95875200Y-91389200D03*
%TO.P,J1,4,Pin_4*%
%TO.N,In4*%
X99375200Y-91389200D03*
%TO.P,J1,5,Pin_5*%
%TO.N,In5*%
X102875200Y-91389200D03*
%TO.P,J1,6,Pin_6*%
%TO.N,In6*%
X106375200Y-91389200D03*
%TO.P,J1,7,Pin_7*%
%TO.N,In7*%
X109875200Y-91389200D03*
%TO.P,J1,8,Pin_8*%
%TO.N,In8*%
X113375200Y-91389200D03*
%TO.P,J1,9,Pin_9*%
%TO.N,+24V*%
X116875200Y-91389200D03*
%TO.P,J1,10,Pin_10*%
%TO.N,GND*%
X120375200Y-91389200D03*
%TD*%
D12*
%TO.P,K1,1*%
%TO.N,GND*%
X65735200Y-80835500D03*
D13*
%TO.P,K1,2*%
%TO.N,Net-(K1-Pad2)*%
X65735200Y-78295500D03*
%TO.P,K1,3*%
%TO.N,Out1*%
X65735200Y-68135500D03*
%TO.P,K1,4*%
%TO.N,+24V*%
X65735200Y-63055500D03*
%TD*%
D12*
%TO.P,K3,1*%
%TO.N,GND*%
X89103200Y-80835500D03*
D13*
%TO.P,K3,2*%
%TO.N,Net-(K3-Pad2)*%
X89103200Y-78295500D03*
%TO.P,K3,3*%
%TO.N,Out3*%
X89103200Y-68135500D03*
%TO.P,K3,4*%
%TO.N,+24V*%
X89103200Y-63055500D03*
%TD*%
D12*
%TO.P,K4,1*%
%TO.N,GND*%
X100126800Y-80835500D03*
D13*
%TO.P,K4,2*%
%TO.N,Net-(K4-Pad2)*%
X100126800Y-78295500D03*
%TO.P,K4,3*%
%TO.N,Out4*%
X100126800Y-68135500D03*
%TO.P,K4,4*%
%TO.N,+24V*%
X100126800Y-63055500D03*
%TD*%
D12*
%TO.P,K5,1*%
%TO.N,GND*%
X111201200Y-80835500D03*
D13*
%TO.P,K5,2*%
%TO.N,Net-(K5-Pad2)*%
X111201200Y-78295500D03*
%TO.P,K5,3*%
%TO.N,Out5*%
X111201200Y-68135500D03*
%TO.P,K5,4*%
%TO.N,+24V*%
X111201200Y-63055500D03*
%TD*%
D14*
%TO.N,GND*%
X64922400Y-85953600D03*
X87985600Y-83769200D03*
X76657200Y-59740800D03*
X100330000Y-57353200D03*
X119938800Y-59537600D03*
X134467600Y-57759600D03*
X129641600Y-85750400D03*
X110134400Y-84683600D03*
%TD*%
D15*
%TO.N,Out4*%
X98399600Y-53118800D02*
X98856700Y-52661700D01*
X98399600Y-59522300D02*
X98399600Y-53118800D01*
X97129600Y-65125600D02*
X97129600Y-60792300D01*
X97129600Y-60792300D02*
X98399600Y-59522300D01*
X100126800Y-68122800D02*
X97129600Y-65125600D01*
%TO.N,Out7*%
X121462800Y-57759600D02*
X112877600Y-57759600D01*
X112877600Y-57759600D02*
X109356700Y-54238700D01*
X109356700Y-54238700D02*
X109356700Y-52661700D01*
X131013200Y-67310000D02*
X121462800Y-57759600D01*
X131013200Y-68122800D02*
X131013200Y-67310000D01*
%TO.N,Out8*%
X114808000Y-56083200D02*
X112856700Y-54131900D01*
X112856700Y-54131900D02*
X112856700Y-52661700D01*
X128879600Y-56083200D02*
X114808000Y-56083200D01*
X140931900Y-68135500D02*
X128879600Y-56083200D01*
X142087600Y-68135500D02*
X140931900Y-68135500D01*
%TO.N,Out3*%
X95356700Y-60954900D02*
X95356700Y-52661700D01*
X89103200Y-67208400D02*
X95356700Y-60954900D01*
X89103200Y-68122800D02*
X89103200Y-67208400D01*
%TO.N,Out1*%
X65735200Y-68173600D02*
X65735200Y-66700400D01*
X65735200Y-66700400D02*
X79773900Y-52661700D01*
X79773900Y-52661700D02*
X88356700Y-52661700D01*
%TO.N,Out2*%
X91856700Y-55163400D02*
X91856700Y-52661700D01*
X91851800Y-55163400D02*
X91856700Y-55163400D01*
X77622400Y-68072000D02*
X78943200Y-68072000D01*
X78943200Y-68072000D02*
X91851800Y-55163400D01*
%TO.N,Out6*%
X120802400Y-68122800D02*
X121107200Y-68122800D01*
X109626400Y-56946800D02*
X120802400Y-68122800D01*
X107543600Y-56946800D02*
X109626400Y-56946800D01*
X105856700Y-55259900D02*
X107543600Y-56946800D01*
X105856700Y-52661700D02*
X105856700Y-55259900D01*
%TO.N,Out5*%
X102356700Y-59189400D02*
X102356700Y-52661700D01*
X111201200Y-68033900D02*
X102356700Y-59189400D01*
%TD*%
M02*
