%TF.GenerationSoftware,KiCad,Pcbnew,8.0.4*%
%TF.CreationDate,2024-07-23T21:16:43+01:00*%
%TF.ProjectId,8_Way_Relay_Board,385f5761-795f-4526-956c-61795f426f61,V1*%
%TF.SameCoordinates,Original*%
%TF.FileFunction,Legend,Bot*%
%TF.FilePolarity,Positive*%
%FSLAX46Y46*%
G04 Gerber Fmt 4.6, Leading zero omitted, Abs format (unit mm)*
G04 Created by KiCad (PCBNEW 8.0.4) date 2024-07-23 21:16:43*
%MOMM*%
%LPD*%
G01*
G04 APERTURE LIST*
G04 Aperture macros list*
%AMRoundRect*
0 Rectangle with rounded corners*
0 $1 Rounding radius*
0 $2 $3 $4 $5 $6 $7 $8 $9 X,Y pos of 4 corners*
0 Add a 4 corners polygon primitive as box body*
4,1,4,$2,$3,$4,$5,$6,$7,$8,$9,$2,$3,0*
0 Add four circle primitives for the rounded corners*
1,1,$1+$1,$2,$3*
1,1,$1+$1,$4,$5*
1,1,$1+$1,$6,$7*
1,1,$1+$1,$8,$9*
0 Add four rect primitives between the rounded corners*
20,1,$1+$1,$2,$3,$4,$5,0*
20,1,$1+$1,$4,$5,$6,$7,0*
20,1,$1+$1,$6,$7,$8,$9,0*
20,1,$1+$1,$8,$9,$2,$3,0*%
G04 Aperture macros list end*
%ADD10RoundRect,0.250000X-0.650000X-1.550000X0.650000X-1.550000X0.650000X1.550000X-0.650000X1.550000X0*%
%ADD11O,1.800000X3.600000*%
%ADD12C,3.200000*%
%ADD13R,1.752600X1.752600*%
%ADD14C,1.752600*%
G04 APERTURE END LIST*
%LPC*%
D10*
%TO.C,J2*%
X88356700Y-52661700D03*
D11*
X91856700Y-52661700D03*
X95356700Y-52661700D03*
X98856700Y-52661700D03*
X102356700Y-52661700D03*
X105856700Y-52661700D03*
X109356700Y-52661700D03*
X112856700Y-52661700D03*
X116356700Y-52661700D03*
X119856700Y-52661700D03*
%TD*%
D12*
%TO.C,H2*%
X140563600Y-51358800D03*
%TD*%
%TO.C,H4*%
X140512800Y-91490800D03*
%TD*%
D13*
%TO.C,K7*%
X131013200Y-80835500D03*
D14*
X131013200Y-78295500D03*
X131013200Y-68135500D03*
X131013200Y-63055500D03*
%TD*%
D13*
%TO.C,K8*%
X142087600Y-80835500D03*
D14*
X142087600Y-78295500D03*
X142087600Y-68135500D03*
X142087600Y-63055500D03*
%TD*%
D13*
%TO.C,K2*%
X77622400Y-80835500D03*
D14*
X77622400Y-78295500D03*
X77622400Y-68135500D03*
X77622400Y-63055500D03*
%TD*%
D13*
%TO.C,K6*%
X121107200Y-80835500D03*
D14*
X121107200Y-78295500D03*
X121107200Y-68135500D03*
X121107200Y-63055500D03*
%TD*%
D10*
%TO.C,J1*%
X88875200Y-91389200D03*
D11*
X92375200Y-91389200D03*
X95875200Y-91389200D03*
X99375200Y-91389200D03*
X102875200Y-91389200D03*
X106375200Y-91389200D03*
X109875200Y-91389200D03*
X113375200Y-91389200D03*
X116875200Y-91389200D03*
X120375200Y-91389200D03*
%TD*%
D13*
%TO.C,K1*%
X65735200Y-80835500D03*
D14*
X65735200Y-78295500D03*
X65735200Y-68135500D03*
X65735200Y-63055500D03*
%TD*%
D13*
%TO.C,K3*%
X89103200Y-80835500D03*
D14*
X89103200Y-78295500D03*
X89103200Y-68135500D03*
X89103200Y-63055500D03*
%TD*%
D12*
%TO.C,H1*%
X67411600Y-51358800D03*
%TD*%
%TO.C,H3*%
X67360800Y-91490800D03*
%TD*%
D13*
%TO.C,K4*%
X100126800Y-80835500D03*
D14*
X100126800Y-78295500D03*
X100126800Y-68135500D03*
X100126800Y-63055500D03*
%TD*%
D13*
%TO.C,K5*%
X111201200Y-80835500D03*
D14*
X111201200Y-78295500D03*
X111201200Y-68135500D03*
X111201200Y-63055500D03*
%TD*%
%LPD*%
M02*
