%TF.GenerationSoftware,KiCad,Pcbnew,8.0.4*%
%TF.CreationDate,2024-07-23T21:16:43+01:00*%
%TF.ProjectId,8_Way_Relay_Board,385f5761-795f-4526-956c-61795f426f61,V1*%
%TF.SameCoordinates,Original*%
%TF.FileFunction,Paste,Top*%
%TF.FilePolarity,Positive*%
%FSLAX46Y46*%
G04 Gerber Fmt 4.6, Leading zero omitted, Abs format (unit mm)*
G04 Created by KiCad (PCBNEW 8.0.4) date 2024-07-23 21:16:43*
%MOMM*%
%LPD*%
G01*
G04 APERTURE LIST*
G04 Aperture macros list*
%AMRoundRect*
0 Rectangle with rounded corners*
0 $1 Rounding radius*
0 $2 $3 $4 $5 $6 $7 $8 $9 X,Y pos of 4 corners*
0 Add a 4 corners polygon primitive as box body*
4,1,4,$2,$3,$4,$5,$6,$7,$8,$9,$2,$3,0*
0 Add four circle primitives for the rounded corners*
1,1,$1+$1,$2,$3*
1,1,$1+$1,$4,$5*
1,1,$1+$1,$6,$7*
1,1,$1+$1,$8,$9*
0 Add four rect primitives between the rounded corners*
20,1,$1+$1,$2,$3,$4,$5,0*
20,1,$1+$1,$4,$5,$6,$7,0*
20,1,$1+$1,$6,$7,$8,$9,0*
20,1,$1+$1,$8,$9,$2,$3,0*%
G04 Aperture macros list end*
%ADD10RoundRect,0.250000X-0.450000X0.350000X-0.450000X-0.350000X0.450000X-0.350000X0.450000X0.350000X0*%
%ADD11RoundRect,0.250000X0.350000X0.450000X-0.350000X0.450000X-0.350000X-0.450000X0.350000X-0.450000X0*%
%ADD12RoundRect,0.250001X-0.462499X-0.624999X0.462499X-0.624999X0.462499X0.624999X-0.462499X0.624999X0*%
%ADD13RoundRect,0.250000X0.450000X-0.350000X0.450000X0.350000X-0.450000X0.350000X-0.450000X-0.350000X0*%
G04 APERTURE END LIST*
D10*
%TO.C,R8*%
X138684000Y-76317600D03*
X138684000Y-78317600D03*
%TD*%
D11*
%TO.C,R10*%
X84886800Y-58623200D03*
X82886800Y-58623200D03*
%TD*%
D12*
%TO.C,D8*%
X135556600Y-58674000D03*
X138531600Y-58674000D03*
%TD*%
D11*
%TO.C,R4*%
X106765600Y-78282800D03*
X104765600Y-78282800D03*
%TD*%
D12*
%TO.C,D2*%
X77709700Y-58623200D03*
X80684700Y-58623200D03*
%TD*%
%TO.C,D7*%
X130984600Y-85699600D03*
X133959600Y-85699600D03*
%TD*%
D11*
%TO.C,R3*%
X95843600Y-78282800D03*
X93843600Y-78282800D03*
%TD*%
%TO.C,R11*%
X96556500Y-84595600D03*
X94556500Y-84595600D03*
%TD*%
%TO.C,R9*%
X72662800Y-84707200D03*
X70662800Y-84707200D03*
%TD*%
%TO.C,R13*%
X118484400Y-84673600D03*
X116484400Y-84673600D03*
%TD*%
%TO.C,R5*%
X117297200Y-78181200D03*
X115297200Y-78181200D03*
%TD*%
D12*
%TO.C,D6*%
X121027800Y-58623200D03*
X124002800Y-58623200D03*
%TD*%
%TO.C,D5*%
X111237700Y-84683600D03*
X114212700Y-84683600D03*
%TD*%
D11*
%TO.C,R14*%
X128341300Y-58626800D03*
X126341300Y-58626800D03*
%TD*%
D12*
%TO.C,D3*%
X89125400Y-84582000D03*
X92100400Y-84582000D03*
%TD*%
D11*
%TO.C,R6*%
X127136400Y-78282800D03*
X125136400Y-78282800D03*
%TD*%
%TO.C,R16*%
X142630400Y-58640400D03*
X140630400Y-58640400D03*
%TD*%
%TO.C,R1*%
X72780400Y-78333600D03*
X70780400Y-78333600D03*
%TD*%
D12*
%TO.C,D4*%
X100352200Y-58674000D03*
X103327200Y-58674000D03*
%TD*%
D11*
%TO.C,R12*%
X107630900Y-58701200D03*
X105630900Y-58701200D03*
%TD*%
D13*
%TO.C,R7*%
X134620000Y-80298800D03*
X134620000Y-78298800D03*
%TD*%
D11*
%TO.C,R2*%
X84921600Y-78232000D03*
X82921600Y-78232000D03*
%TD*%
D12*
%TO.C,D1*%
X65757400Y-84683600D03*
X68732400Y-84683600D03*
%TD*%
D11*
%TO.C,R15*%
X138182200Y-85699600D03*
X136182200Y-85699600D03*
%TD*%
M02*
