%TF.GenerationSoftware,KiCad,Pcbnew,8.0.4*%
%TF.CreationDate,2024-07-23T21:16:43+01:00*%
%TF.ProjectId,8_Way_Relay_Board,385f5761-795f-4526-956c-61795f426f61,V1*%
%TF.SameCoordinates,Original*%
%TF.FileFunction,Copper,L1,Top*%
%TF.FilePolarity,Positive*%
%FSLAX46Y46*%
G04 Gerber Fmt 4.6, Leading zero omitted, Abs format (unit mm)*
G04 Created by KiCad (PCBNEW 8.0.4) date 2024-07-23 21:16:43*
%MOMM*%
%LPD*%
G01*
G04 APERTURE LIST*
G04 Aperture macros list*
%AMRoundRect*
0 Rectangle with rounded corners*
0 $1 Rounding radius*
0 $2 $3 $4 $5 $6 $7 $8 $9 X,Y pos of 4 corners*
0 Add a 4 corners polygon primitive as box body*
4,1,4,$2,$3,$4,$5,$6,$7,$8,$9,$2,$3,0*
0 Add four circle primitives for the rounded corners*
1,1,$1+$1,$2,$3*
1,1,$1+$1,$4,$5*
1,1,$1+$1,$6,$7*
1,1,$1+$1,$8,$9*
0 Add four rect primitives between the rounded corners*
20,1,$1+$1,$2,$3,$4,$5,0*
20,1,$1+$1,$4,$5,$6,$7,0*
20,1,$1+$1,$6,$7,$8,$9,0*
20,1,$1+$1,$8,$9,$2,$3,0*%
G04 Aperture macros list end*
%TA.AperFunction,SMDPad,CuDef*%
%ADD10RoundRect,0.250000X-0.450000X0.350000X-0.450000X-0.350000X0.450000X-0.350000X0.450000X0.350000X0*%
%TD*%
%TA.AperFunction,SMDPad,CuDef*%
%ADD11RoundRect,0.250000X0.350000X0.450000X-0.350000X0.450000X-0.350000X-0.450000X0.350000X-0.450000X0*%
%TD*%
%TA.AperFunction,ComponentPad*%
%ADD12RoundRect,0.250000X-0.650000X-1.550000X0.650000X-1.550000X0.650000X1.550000X-0.650000X1.550000X0*%
%TD*%
%TA.AperFunction,ComponentPad*%
%ADD13O,1.800000X3.600000*%
%TD*%
%TA.AperFunction,SMDPad,CuDef*%
%ADD14RoundRect,0.250001X-0.462499X-0.624999X0.462499X-0.624999X0.462499X0.624999X-0.462499X0.624999X0*%
%TD*%
%TA.AperFunction,ComponentPad*%
%ADD15R,1.752600X1.752600*%
%TD*%
%TA.AperFunction,ComponentPad*%
%ADD16C,1.752600*%
%TD*%
%TA.AperFunction,SMDPad,CuDef*%
%ADD17RoundRect,0.250000X0.450000X-0.350000X0.450000X0.350000X-0.450000X0.350000X-0.450000X-0.350000X0*%
%TD*%
%TA.AperFunction,ViaPad*%
%ADD18C,0.800000*%
%TD*%
%TA.AperFunction,Conductor*%
%ADD19C,1.000000*%
%TD*%
%TA.AperFunction,Conductor*%
%ADD20C,0.500000*%
%TD*%
G04 APERTURE END LIST*
D10*
%TO.P,R8,1*%
%TO.N,In8*%
X138684000Y-76317600D03*
%TO.P,R8,2*%
%TO.N,Net-(K8-Pad2)*%
X138684000Y-78317600D03*
%TD*%
D11*
%TO.P,R10,1*%
%TO.N,In2*%
X84886800Y-58623200D03*
%TO.P,R10,2*%
%TO.N,Net-(D2-A)*%
X82886800Y-58623200D03*
%TD*%
D12*
%TO.P,J2,1,Pin_1*%
%TO.N,Out1*%
X88356700Y-52661700D03*
D13*
%TO.P,J2,2,Pin_2*%
%TO.N,Out2*%
X91856700Y-52661700D03*
%TO.P,J2,3,Pin_3*%
%TO.N,Out3*%
X95356700Y-52661700D03*
%TO.P,J2,4,Pin_4*%
%TO.N,Out4*%
X98856700Y-52661700D03*
%TO.P,J2,5,Pin_5*%
%TO.N,Out5*%
X102356700Y-52661700D03*
%TO.P,J2,6,Pin_6*%
%TO.N,Out6*%
X105856700Y-52661700D03*
%TO.P,J2,7,Pin_7*%
%TO.N,Out7*%
X109356700Y-52661700D03*
%TO.P,J2,8,Pin_8*%
%TO.N,Out8*%
X112856700Y-52661700D03*
%TO.P,J2,9,Pin_9*%
%TO.N,+24V*%
X116356700Y-52661700D03*
%TO.P,J2,10,Pin_10*%
%TO.N,GND*%
X119856700Y-52661700D03*
%TD*%
D14*
%TO.P,D8,1,K*%
%TO.N,GND*%
X135556600Y-58674000D03*
%TO.P,D8,2,A*%
%TO.N,Net-(D8-A)*%
X138531600Y-58674000D03*
%TD*%
D11*
%TO.P,R4,1*%
%TO.N,In4*%
X106765600Y-78282800D03*
%TO.P,R4,2*%
%TO.N,Net-(K4-Pad2)*%
X104765600Y-78282800D03*
%TD*%
D14*
%TO.P,D2,1,K*%
%TO.N,GND*%
X77709700Y-58623200D03*
%TO.P,D2,2,A*%
%TO.N,Net-(D2-A)*%
X80684700Y-58623200D03*
%TD*%
%TO.P,D7,1,K*%
%TO.N,GND*%
X130984600Y-85699600D03*
%TO.P,D7,2,A*%
%TO.N,Net-(D7-A)*%
X133959600Y-85699600D03*
%TD*%
D11*
%TO.P,R3,1*%
%TO.N,In3*%
X95843600Y-78282800D03*
%TO.P,R3,2*%
%TO.N,Net-(K3-Pad2)*%
X93843600Y-78282800D03*
%TD*%
%TO.P,R11,1*%
%TO.N,In3*%
X96556500Y-84595600D03*
%TO.P,R11,2*%
%TO.N,Net-(D3-A)*%
X94556500Y-84595600D03*
%TD*%
D15*
%TO.P,K7,1*%
%TO.N,GND*%
X131013200Y-80835500D03*
D16*
%TO.P,K7,2*%
%TO.N,Net-(K7-Pad2)*%
X131013200Y-78295500D03*
%TO.P,K7,3*%
%TO.N,Out7*%
X131013200Y-68135500D03*
%TO.P,K7,4*%
%TO.N,+24V*%
X131013200Y-63055500D03*
%TD*%
D11*
%TO.P,R9,1*%
%TO.N,In1*%
X72662800Y-84707200D03*
%TO.P,R9,2*%
%TO.N,Net-(D1-A)*%
X70662800Y-84707200D03*
%TD*%
%TO.P,R13,1*%
%TO.N,In5*%
X118484400Y-84673600D03*
%TO.P,R13,2*%
%TO.N,Net-(D5-A)*%
X116484400Y-84673600D03*
%TD*%
%TO.P,R5,1*%
%TO.N,In5*%
X117297200Y-78181200D03*
%TO.P,R5,2*%
%TO.N,Net-(K5-Pad2)*%
X115297200Y-78181200D03*
%TD*%
D14*
%TO.P,D6,1,K*%
%TO.N,GND*%
X121027800Y-58623200D03*
%TO.P,D6,2,A*%
%TO.N,Net-(D6-A)*%
X124002800Y-58623200D03*
%TD*%
%TO.P,D5,1,K*%
%TO.N,GND*%
X111237700Y-84683600D03*
%TO.P,D5,2,A*%
%TO.N,Net-(D5-A)*%
X114212700Y-84683600D03*
%TD*%
D11*
%TO.P,R14,1*%
%TO.N,In6*%
X128341300Y-58626800D03*
%TO.P,R14,2*%
%TO.N,Net-(D6-A)*%
X126341300Y-58626800D03*
%TD*%
D15*
%TO.P,K8,1*%
%TO.N,GND*%
X142087600Y-80835500D03*
D16*
%TO.P,K8,2*%
%TO.N,Net-(K8-Pad2)*%
X142087600Y-78295500D03*
%TO.P,K8,3*%
%TO.N,Out8*%
X142087600Y-68135500D03*
%TO.P,K8,4*%
%TO.N,+24V*%
X142087600Y-63055500D03*
%TD*%
D15*
%TO.P,K2,1*%
%TO.N,GND*%
X77622400Y-80835500D03*
D16*
%TO.P,K2,2*%
%TO.N,Net-(K2-Pad2)*%
X77622400Y-78295500D03*
%TO.P,K2,3*%
%TO.N,Out2*%
X77622400Y-68135500D03*
%TO.P,K2,4*%
%TO.N,+24V*%
X77622400Y-63055500D03*
%TD*%
D14*
%TO.P,D3,1,K*%
%TO.N,GND*%
X89125400Y-84582000D03*
%TO.P,D3,2,A*%
%TO.N,Net-(D3-A)*%
X92100400Y-84582000D03*
%TD*%
D11*
%TO.P,R6,1*%
%TO.N,In6*%
X127136400Y-78282800D03*
%TO.P,R6,2*%
%TO.N,Net-(K6-Pad2)*%
X125136400Y-78282800D03*
%TD*%
%TO.P,R16,1*%
%TO.N,In8*%
X142630400Y-58640400D03*
%TO.P,R16,2*%
%TO.N,Net-(D8-A)*%
X140630400Y-58640400D03*
%TD*%
D15*
%TO.P,K6,1*%
%TO.N,GND*%
X121107200Y-80835500D03*
D16*
%TO.P,K6,2*%
%TO.N,Net-(K6-Pad2)*%
X121107200Y-78295500D03*
%TO.P,K6,3*%
%TO.N,Out6*%
X121107200Y-68135500D03*
%TO.P,K6,4*%
%TO.N,+24V*%
X121107200Y-63055500D03*
%TD*%
D12*
%TO.P,J1,1,Pin_1*%
%TO.N,In1*%
X88875200Y-91389200D03*
D13*
%TO.P,J1,2,Pin_2*%
%TO.N,In2*%
X92375200Y-91389200D03*
%TO.P,J1,3,Pin_3*%
%TO.N,In3*%
X95875200Y-91389200D03*
%TO.P,J1,4,Pin_4*%
%TO.N,In4*%
X99375200Y-91389200D03*
%TO.P,J1,5,Pin_5*%
%TO.N,In5*%
X102875200Y-91389200D03*
%TO.P,J1,6,Pin_6*%
%TO.N,In6*%
X106375200Y-91389200D03*
%TO.P,J1,7,Pin_7*%
%TO.N,In7*%
X109875200Y-91389200D03*
%TO.P,J1,8,Pin_8*%
%TO.N,In8*%
X113375200Y-91389200D03*
%TO.P,J1,9,Pin_9*%
%TO.N,+24V*%
X116875200Y-91389200D03*
%TO.P,J1,10,Pin_10*%
%TO.N,GND*%
X120375200Y-91389200D03*
%TD*%
D15*
%TO.P,K1,1*%
%TO.N,GND*%
X65735200Y-80835500D03*
D16*
%TO.P,K1,2*%
%TO.N,Net-(K1-Pad2)*%
X65735200Y-78295500D03*
%TO.P,K1,3*%
%TO.N,Out1*%
X65735200Y-68135500D03*
%TO.P,K1,4*%
%TO.N,+24V*%
X65735200Y-63055500D03*
%TD*%
D11*
%TO.P,R1,1*%
%TO.N,In1*%
X72780400Y-78333600D03*
%TO.P,R1,2*%
%TO.N,Net-(K1-Pad2)*%
X70780400Y-78333600D03*
%TD*%
D14*
%TO.P,D4,1,K*%
%TO.N,GND*%
X100352200Y-58674000D03*
%TO.P,D4,2,A*%
%TO.N,Net-(D4-A)*%
X103327200Y-58674000D03*
%TD*%
D15*
%TO.P,K3,1*%
%TO.N,GND*%
X89103200Y-80835500D03*
D16*
%TO.P,K3,2*%
%TO.N,Net-(K3-Pad2)*%
X89103200Y-78295500D03*
%TO.P,K3,3*%
%TO.N,Out3*%
X89103200Y-68135500D03*
%TO.P,K3,4*%
%TO.N,+24V*%
X89103200Y-63055500D03*
%TD*%
D15*
%TO.P,K4,1*%
%TO.N,GND*%
X100126800Y-80835500D03*
D16*
%TO.P,K4,2*%
%TO.N,Net-(K4-Pad2)*%
X100126800Y-78295500D03*
%TO.P,K4,3*%
%TO.N,Out4*%
X100126800Y-68135500D03*
%TO.P,K4,4*%
%TO.N,+24V*%
X100126800Y-63055500D03*
%TD*%
D11*
%TO.P,R12,1*%
%TO.N,In4*%
X107630900Y-58701200D03*
%TO.P,R12,2*%
%TO.N,Net-(D4-A)*%
X105630900Y-58701200D03*
%TD*%
D15*
%TO.P,K5,1*%
%TO.N,GND*%
X111201200Y-80835500D03*
D16*
%TO.P,K5,2*%
%TO.N,Net-(K5-Pad2)*%
X111201200Y-78295500D03*
%TO.P,K5,3*%
%TO.N,Out5*%
X111201200Y-68135500D03*
%TO.P,K5,4*%
%TO.N,+24V*%
X111201200Y-63055500D03*
%TD*%
D17*
%TO.P,R7,1*%
%TO.N,In7*%
X134620000Y-80298800D03*
%TO.P,R7,2*%
%TO.N,Net-(K7-Pad2)*%
X134620000Y-78298800D03*
%TD*%
D11*
%TO.P,R2,1*%
%TO.N,In2*%
X84921600Y-78232000D03*
%TO.P,R2,2*%
%TO.N,Net-(K2-Pad2)*%
X82921600Y-78232000D03*
%TD*%
D14*
%TO.P,D1,1,K*%
%TO.N,GND*%
X65757400Y-84683600D03*
%TO.P,D1,2,A*%
%TO.N,Net-(D1-A)*%
X68732400Y-84683600D03*
%TD*%
D11*
%TO.P,R15,1*%
%TO.N,In7*%
X138182200Y-85699600D03*
%TO.P,R15,2*%
%TO.N,Net-(D7-A)*%
X136182200Y-85699600D03*
%TD*%
D18*
%TO.N,GND*%
X64922400Y-85953600D03*
X87985600Y-83769200D03*
X76657200Y-59740800D03*
X100330000Y-57353200D03*
X119938800Y-59537600D03*
X134467600Y-57759600D03*
X129641600Y-85750400D03*
X110134400Y-84683600D03*
%TD*%
D19*
%TO.N,In8*%
X142630400Y-58893200D02*
X138684000Y-62839600D01*
X138684000Y-62839600D02*
X138684000Y-76317600D01*
X142630400Y-58640400D02*
X142630400Y-58893200D01*
X128937100Y-76802900D02*
X131267200Y-74472800D01*
X128937100Y-79647700D02*
X128937100Y-76802900D01*
X113375200Y-88442800D02*
X120142000Y-88442800D01*
X120142000Y-88442800D02*
X128937100Y-79647700D01*
X131267200Y-74472800D02*
X136839200Y-74472800D01*
X136839200Y-74472800D02*
X138684000Y-76317600D01*
X113375200Y-91389200D02*
X113375200Y-88442800D01*
%TO.N,In7*%
X138182200Y-85919600D02*
X138182200Y-85699600D01*
X129588202Y-94513598D02*
X138182200Y-85919600D01*
X109875200Y-94518517D02*
X129588202Y-94513598D01*
X109875200Y-91389200D02*
X109875200Y-94518517D01*
D20*
%TO.N,GND*%
X76657200Y-59675700D02*
X77709700Y-58623200D01*
X76657200Y-59740800D02*
X76657200Y-59675700D01*
X100330000Y-58651800D02*
X100352200Y-58674000D01*
X100330000Y-57353200D02*
X100330000Y-58651800D01*
X119938800Y-59537600D02*
X120113400Y-59537600D01*
X120113400Y-59537600D02*
X121027800Y-58623200D01*
X134642200Y-57759600D02*
X135556600Y-58674000D01*
X134467600Y-57759600D02*
X134642200Y-57759600D01*
X129641600Y-85750400D02*
X130933800Y-85750400D01*
X130933800Y-85750400D02*
X130984600Y-85699600D01*
X110134400Y-84683600D02*
X111237700Y-84683600D01*
D19*
%TO.N,In2*%
X84921600Y-84464400D02*
X84921600Y-78232000D01*
X88646000Y-88188800D02*
X84921600Y-84464400D01*
X92375200Y-91389200D02*
X92375200Y-88188800D01*
X92375200Y-88188800D02*
X88646000Y-88188800D01*
D20*
%TO.N,GND*%
X87985600Y-83769200D02*
X88312600Y-83769200D01*
X88312600Y-83769200D02*
X89125400Y-84582000D01*
X64922400Y-85518600D02*
X65757400Y-84683600D01*
X64922400Y-85953600D02*
X64922400Y-85518600D01*
D19*
%TO.N,Net-(K8-Pad2)*%
X138706100Y-78295500D02*
X138684000Y-78317600D01*
X142087600Y-78295500D02*
X138706100Y-78295500D01*
%TO.N,In7*%
X138182200Y-83861000D02*
X138182200Y-85699600D01*
X134620000Y-80298800D02*
X138182200Y-83861000D01*
%TO.N,In6*%
X106375200Y-91389200D02*
X106375200Y-88887500D01*
X127136400Y-78443600D02*
X127136400Y-78282800D01*
X118508400Y-87071600D02*
X127136400Y-78443600D01*
X108191100Y-87071600D02*
X118508400Y-87071600D01*
X106375200Y-88887500D02*
X108191100Y-87071600D01*
X128341300Y-60767500D02*
X128341300Y-58626800D01*
X127136400Y-61972400D02*
X128341300Y-60767500D01*
X127136400Y-78282800D02*
X127136400Y-61972400D01*
%TO.N,In5*%
X102875200Y-91389200D02*
X102875200Y-88887500D01*
X118484400Y-84459300D02*
X118484400Y-84673600D01*
X114844600Y-80819500D02*
X118484400Y-84459300D01*
X112776800Y-82887300D02*
X114844600Y-80819500D01*
X108875400Y-82887300D02*
X112776800Y-82887300D01*
X102875200Y-88887500D02*
X108875400Y-82887300D01*
X117297200Y-78366900D02*
X117297200Y-78181200D01*
X114844600Y-80819500D02*
X117297200Y-78366900D01*
%TO.N,In4*%
X106765600Y-80988300D02*
X106765600Y-78282800D01*
X99375200Y-88378700D02*
X106765600Y-80988300D01*
X99375200Y-91389200D02*
X99375200Y-88378700D01*
X107630900Y-77417500D02*
X106765600Y-78282800D01*
X107630900Y-58701200D02*
X107630900Y-77417500D01*
%TO.N,In3*%
X95875200Y-85276900D02*
X96556500Y-84595600D01*
X95875200Y-91389200D02*
X95875200Y-85276900D01*
X96556500Y-78995700D02*
X95843600Y-78282800D01*
X96556500Y-84595600D02*
X96556500Y-78995700D01*
%TO.N,In2*%
X84921600Y-58658000D02*
X84886800Y-58623200D01*
X84921600Y-78232000D02*
X84921600Y-58658000D01*
%TO.N,In1*%
X79344800Y-91389200D02*
X72662800Y-84707200D01*
X88875200Y-91389200D02*
X79344800Y-91389200D01*
X72662800Y-78451200D02*
X72662800Y-84707200D01*
X72780400Y-78333600D02*
X72662800Y-78451200D01*
%TO.N,Net-(D8-A)*%
X140596800Y-58674000D02*
X140630400Y-58640400D01*
X138531600Y-58674000D02*
X140596800Y-58674000D01*
%TO.N,Net-(D7-A)*%
X133959600Y-85699600D02*
X136182200Y-85699600D01*
%TO.N,Net-(D6-A)*%
X126337700Y-58623200D02*
X126341300Y-58626800D01*
X124002800Y-58623200D02*
X126337700Y-58623200D01*
%TO.N,Net-(D5-A)*%
X116474400Y-84683600D02*
X116484400Y-84673600D01*
X114212700Y-84683600D02*
X116474400Y-84683600D01*
%TO.N,Net-(D4-A)*%
X105603700Y-58674000D02*
X105630900Y-58701200D01*
X103327200Y-58674000D02*
X105603700Y-58674000D01*
%TO.N,Net-(D3-A)*%
X94542900Y-84582000D02*
X94556500Y-84595600D01*
X92100400Y-84582000D02*
X94542900Y-84582000D01*
%TO.N,Net-(D2-A)*%
X80684700Y-58623200D02*
X82886800Y-58623200D01*
%TO.N,Net-(D1-A)*%
X70639200Y-84683600D02*
X70662800Y-84707200D01*
X68732400Y-84683600D02*
X70639200Y-84683600D01*
%TO.N,Net-(K7-Pad2)*%
X134604000Y-78282800D02*
X131013200Y-78282800D01*
X134620000Y-78298800D02*
X134604000Y-78282800D01*
%TO.N,Net-(K6-Pad2)*%
X121107200Y-78282800D02*
X125136400Y-78282800D01*
%TO.N,Net-(K5-Pad2)*%
X115284500Y-78193900D02*
X115297200Y-78181200D01*
X111201200Y-78193900D02*
X115284500Y-78193900D01*
%TO.N,Net-(K4-Pad2)*%
X100126800Y-78282800D02*
X104765600Y-78282800D01*
%TO.N,Net-(K3-Pad2)*%
X89103200Y-78282800D02*
X93843600Y-78282800D01*
%TO.N,Net-(K2-Pad2)*%
X77622400Y-78232000D02*
X82921600Y-78232000D01*
%TO.N,Net-(K1-Pad2)*%
X65735200Y-78333600D02*
X70780400Y-78333600D01*
%TD*%
M02*
