M48
; DRILL file {KiCad 8.0.4} date 2024-07-23T21:16:43+0100
; FORMAT={-:-/ absolute / inch / decimal}
; #@! TF.CreationDate,2024-07-23T21:16:43+01:00
; #@! TF.GenerationSoftware,Kicad,Pcbnew,8.0.4
; #@! TF.FileFunction,Plated,1,4,PTH
FMAT,2
INCH
; #@! TA.AperFunction,Plated,PTH,ViaDrill
T1C0.0157
; #@! TA.AperFunction,Plated,PTH,ComponentDrill
T2C0.0450
; #@! TA.AperFunction,Plated,PTH,ComponentDrill
T3C0.0472
%
G90
G05
T1
X2.556Y-3.384
X3.018Y-2.352
X3.464Y-3.298
X3.95Y-2.258
X4.336Y-3.334
X4.722Y-2.344
X5.104Y-3.376
X5.294Y-2.274
T2
X2.588Y-2.4825
X2.588Y-2.6825
X2.588Y-3.0825
X2.588Y-3.1825
X3.056Y-2.4825
X3.056Y-2.6825
X3.056Y-3.0825
X3.056Y-3.1825
X3.508Y-2.4825
X3.508Y-2.6825
X3.508Y-3.0825
X3.508Y-3.1825
X3.942Y-2.4825
X3.942Y-2.6825
X3.942Y-3.0825
X3.942Y-3.1825
X4.378Y-2.4825
X4.378Y-2.6825
X4.378Y-3.0825
X4.378Y-3.1825
X4.768Y-2.4825
X4.768Y-2.6825
X4.768Y-3.0825
X4.768Y-3.1825
X5.158Y-2.4825
X5.158Y-2.6825
X5.158Y-3.0825
X5.158Y-3.1825
X5.594Y-2.4825
X5.594Y-2.6825
X5.594Y-3.0825
X5.594Y-3.1825
T3
X3.4786Y-2.0733
X3.499Y-3.598
X3.6164Y-2.0733
X3.6368Y-3.598
X3.7542Y-2.0733
X3.7746Y-3.598
X3.892Y-2.0733
X3.9124Y-3.598
X4.0298Y-2.0733
X4.0502Y-3.598
X4.1676Y-2.0733
X4.188Y-3.598
X4.3054Y-2.0733
X4.3258Y-3.598
X4.4432Y-2.0733
X4.4636Y-3.598
X4.581Y-2.0733
X4.6014Y-3.598
X4.7188Y-2.0733
X4.7392Y-3.598
M30
